<svg xmlns="http://www.w3.org/2000/svg" xmlns:xlink="http://www.w3.org/1999/xlink" width="40" height="40"><defs><path id="A" d="M29.538 14.77a14.77 14.77 0 0 1-14.769 14.768C6.613 29.538 0 22.926 0 14.77S6.613 0 14.77 0s14.768 6.613 14.768 14.77"/></defs><g transform="translate(5 5)" fill-rule="evenodd"><mask id="B" fill="#fff"><use xlink:href="#A"/></mask><g fill-rule="nonzero"><use fill="#4fd15a" xlink:href="#A"/><path fill="#03ac0e" d="M21.1 7.27c0 8.156-6.613 14.768-14.77 14.768A14.77 14.77 0 0 1-8.437 7.269C-8.438-.887-1.825-7.5 6.332-7.5S21.1-.887 21.1 7.27" mask="url(#B)"/><g fill="#fff"><path d="M15.615 3.692a1 1 0 0 1 1 1v8.23l6.385.001a1 1 0 0 1 1 1v1.692a1 1 0 0 1-1 1h-9.077a1 1 0 0 1-1-1V4.692a1 1 0 0 1 1-1h1.692z" mask="url(#B)"/><rect width="3.692" height="12.923" x="12.923" y="3.692" mask="url(#B)" rx="1.846"/></g></g></g></svg>