<svg xmlns="http://www.w3.org/2000/svg" xmlns:xlink="http://www.w3.org/1999/xlink" width="40" height="40"><defs><path id="A" d="M29.538 14.77a14.77 14.77 0 0 1-14.769 14.768C6.613 29.538 0 22.926 0 14.77S6.613 0 14.77 0s14.768 6.613 14.768 14.77"/></defs><g transform="translate(5 5)" fill-rule="evenodd"><mask id="B" fill="#fff"><use xlink:href="#A"/></mask><g fill-rule="nonzero"><use fill="#4fd15a" xlink:href="#A"/><path fill="#03ac0e" d="M21.1 7.27c0 8.156-6.613 14.768-14.77 14.768A14.77 14.77 0 0 1-8.437 7.269C-8.438-.887-1.825-7.5 6.332-7.5S21.1-.887 21.1 7.27" mask="url(#B)"/></g><path fill="#fff" d="M23.57 13.66A1.34 1.34 0 0 0 22.231 15a7.15 7.15 0 0 1-7.138 7.137 7.16 7.16 0 0 1-2.387-.425l.7-1.198a1.065 1.065 0 0 0-.006-1.092 1.062 1.062 0 0 0-.907-.508l-.058.002-.163.01-4.853.262a1.059 1.059 0 0 0-.898 1.517l.388.808 1.783 3.722a1.07 1.07 0 0 0 .908.6 1.05 1.05 0 0 0 .958-.518l.77-1.297c.067.043.123.1.2.13a9.78 9.78 0 0 0 3.555.664c5.413 0 9.816-4.4 9.816-9.816a1.34 1.34 0 0 0-1.339-1.339M7.768 15a7.15 7.15 0 0 1 7.137-7.138c.823 0 1.62.154 2.388.425l-.7 1.2a1.061 1.061 0 0 0 .91 1.599c.022 0 .04 0 .06-.002l5.017-.272a1.061 1.061 0 0 0 .898-1.517l-.465-.967-1.707-3.563a1.063 1.063 0 0 0-.909-.6 1.048 1.048 0 0 0-.956.518l-.77 1.295c-.07-.04-.124-.097-.2-.13a9.79 9.79 0 0 0-3.557-.664C9.5 5.184 5.1 9.585 5.1 15a1.34 1.34 0 0 0 2.68 0" mask="url(#B)"/></g></svg>