<svg width="32" height="32" viewBox="0 0 32 32" fill="none" xmlns="http://www.w3.org/2000/svg">
<rect width="32" height="32" rx="16" fill="url(#paint0_linear)"/>
<g clip-path="url(#clip0)">
<path d="M19.0576 9.33325H12.9427C10.9526 9.33325 9.3335 10.9523 9.3335 12.9425V19.0575C9.3335 21.0475 10.9526 22.6666 12.9427 22.6666H19.0577C21.0477 22.6666 22.6668 21.0475 22.6668 19.0575V12.9425C22.6668 10.9523 21.0477 9.33325 19.0576 9.33325V9.33325ZM21.8851 19.0575C21.8851 20.6165 20.6167 21.8849 19.0576 21.8849H12.9427C11.3836 21.8849 10.1152 20.6165 10.1152 19.0575V12.9425C10.1152 11.3833 11.3836 10.1149 12.9427 10.1149H19.0577C20.6167 10.1149 21.8851 11.3833 21.8851 12.9425V19.0575Z" fill="white"/>
<path d="M16.0002 12.3542C13.9899 12.3542 12.3545 13.9897 12.3545 16C12.3545 18.0103 13.9899 19.6457 16.0002 19.6457C18.0105 19.6457 19.6459 18.0103 19.6459 16C19.6459 13.9897 18.0105 12.3542 16.0002 12.3542ZM16.0002 18.864C14.421 18.864 13.1361 17.5793 13.1361 16C13.1361 14.4208 14.421 13.1359 16.0002 13.1359C17.5795 13.1359 18.8643 14.4208 18.8643 16C18.8643 17.5793 17.5795 18.864 16.0002 18.864Z" fill="white"/>
<path d="M19.733 11.0593C19.139 11.0593 18.6558 11.5426 18.6558 12.1366C18.6558 12.7307 19.139 13.214 19.733 13.214C20.3271 13.214 20.8104 12.7307 20.8104 12.1366C20.8104 11.5425 20.3271 11.0593 19.733 11.0593ZM19.733 12.4322C19.5701 12.4322 19.4374 12.2996 19.4374 12.1366C19.4374 11.9735 19.5701 11.841 19.733 11.841C19.8961 11.841 20.0287 11.9735 20.0287 12.1366C20.0287 12.2996 19.8961 12.4322 19.733 12.4322Z" fill="white"/>
</g>
<defs>
<linearGradient id="paint0_linear" x1="2.14853" y1="29.9152" x2="31.7987" y2="4.24828" gradientUnits="userSpaceOnUse">
<stop stop-color="#FFDD55"/>
<stop offset="0.5" stop-color="#FF543E"/>
<stop offset="1" stop-color="#C837AB"/>
</linearGradient>
<clipPath id="clip0">
<rect width="13.3333" height="13.3333" fill="white" transform="translate(9.3335 9.33325)"/>
</clipPath>
</defs>
</svg>