<svg width="24" height="24" viewBox="0 0 24 24" fill="none" xmlns="http://www.w3.org/2000/svg">
<path d="M12 1.87549C11.7404 1.87549 11.5317 2.08455 11.5317 2.34377C11.5317 2.58503 11.7132 2.7858 11.9531 2.80961C12.2309 2.83717 12.4683 2.62085 12.4683 2.34377C12.4683 2.08418 12.2592 1.87549 12 1.87549Z" fill="white"/>
<path d="M21.375 2.8125C20.0827 2.8125 19.0312 1.76109 19.0312 0.46875C19.0312 0.209906 18.8213 0 18.5625 0H5.4375C5.17866 0 4.96875 0.209906 4.96875 0.46875C4.96875 1.76109 3.91734 2.8125 2.625 2.8125C2.36616 2.8125 2.15625 3.02241 2.15625 3.28125V10.9308C2.15625 16.8922 6.04195 22.234 11.8654 23.9803C11.9093 23.9934 11.9546 24 12 24C12.0454 24 12.0908 23.9934 12.1347 23.9802C17.832 22.2712 21.8438 17.0226 21.8438 10.9308V3.28125C21.8438 3.02241 21.6338 2.8125 21.375 2.8125ZM20.9062 10.9308C20.9062 16.5299 17.3334 21.3788 12 23.0411C6.70913 21.3921 3.09375 16.4993 3.09375 10.9308V3.71663C4.52864 3.51047 5.66672 2.37239 5.87288 0.9375H18.1271C18.3333 2.37239 19.4714 3.51047 20.9062 3.71663V10.9308Z" fill="white"/>
<path d="M19.6881 4.33547C18.7105 3.90736 17.9364 3.13322 17.5083 2.15569C17.4336 1.98516 17.2651 1.875 17.0789 1.875H13.8741C13.6152 1.875 13.4053 2.08491 13.4053 2.34375C13.4053 2.60259 13.6152 2.8125 13.8741 2.8125H16.7825C17.2778 3.78192 18.0618 4.56595 19.0312 5.06123V10.9308C19.0312 15.5181 16.2774 19.4762 12 21.0607C7.72261 19.4762 4.96875 15.5181 4.96875 10.9308V5.06123C5.93817 4.56595 6.7222 3.78192 7.21748 2.8125H10.1259C10.3848 2.8125 10.5947 2.60259 10.5947 2.34375C10.5947 2.08491 10.3848 1.875 10.1259 1.875H6.92109C6.73491 1.875 6.56644 1.9852 6.49172 2.15569C6.06361 3.13322 5.28947 3.90736 4.31194 4.33547C4.14145 4.41019 4.03125 4.5787 4.03125 4.76484V10.9308C4.03125 15.9564 7.13958 20.3364 11.8436 22.0011C11.8942 22.019 11.9471 22.0279 12 22.0279C12.0529 22.0279 12.1058 22.019 12.1564 22.0011C16.8565 20.3378 19.9688 15.9605 19.9688 10.9308V4.76484C19.9688 4.57866 19.8585 4.41019 19.6881 4.33547Z" fill="white"/>
<path d="M12 6.84375C9.67378 6.84375 7.78125 8.73628 7.78125 11.0625C7.78125 13.3887 9.67378 15.2812 12 15.2812C14.3262 15.2812 16.2188 13.3887 16.2188 11.0625C16.2188 8.73628 14.3262 6.84375 12 6.84375ZM12 14.3438C10.1907 14.3438 8.71875 12.8718 8.71875 11.0625C8.71875 9.25322 10.1907 7.78125 12 7.78125C13.8093 7.78125 15.2812 9.25322 15.2812 11.0625C15.2812 12.8718 13.8093 14.3438 12 14.3438Z" fill="white"/>
<path d="M14.2065 9.7935C14.0234 9.6105 13.7267 9.6105 13.5435 9.7935L11.5313 11.8058L10.9252 11.1998C10.7421 11.0168 10.4454 11.0168 10.2623 11.1998C10.0792 11.3828 10.0792 11.6797 10.2623 11.8628L11.1998 12.8003C11.2914 12.8917 11.4113 12.9375 11.5313 12.9375C11.6513 12.9375 11.7712 12.8917 11.8627 12.8002L14.2065 10.4565C14.3895 10.2734 14.3895 9.97659 14.2065 9.7935Z" fill="white"/>
</svg>