<svg width="40" height="40" viewBox="0 0 40 40" fill="none" xmlns="http://www.w3.org/2000/svg">
<rect width="40" height="40" rx="20" fill="black"/>
<path d="M18.723 18.0895V17.3887C18.5009 17.3566 18.2751 17.3366 18.0419 17.3366C15.2618 17.3327 13 19.7795 13 22.791C13 24.6372 13.8514 26.2711 15.1545 27.2603C14.3141 26.2871 13.7996 24.9776 13.7996 23.5439C13.7996 20.5764 15.9985 18.1576 18.723 18.0895Z" fill="#7EC7CE"/>
<path d="M18.8444 26.0336C20.0845 26.0336 21.0988 24.9644 21.1432 23.6348L21.147 11.7529H23.1533C23.1126 11.5086 23.0904 11.2563 23.0904 11H20.351L20.3473 22.8819C20.3029 24.2115 19.2886 25.2807 18.0485 25.2807C17.6635 25.2807 17.3008 25.1766 16.9787 24.9924C17.3933 25.6211 18.0744 26.0336 18.8444 26.0336Z" fill="#7EC7CE"/>
<path d="M26.904 15.7866V15.1258C26.1377 15.1258 25.4269 14.8815 24.8272 14.457C25.3603 15.1178 26.0821 15.5984 26.904 15.7866Z" fill="#FF165D"/>
<path d="M24.8281 14.4552C24.2432 13.7303 23.8916 12.7852 23.8916 11.752H23.1587C23.3474 12.8814 23.9694 13.8505 24.8281 14.4552Z" fill="#FF165D"/>
<path d="M18.0449 20.2953C16.7751 20.2953 15.7423 21.4127 15.7423 22.7863C15.7423 23.7434 16.2458 24.5764 16.9787 24.9929C16.7048 24.5844 16.5419 24.0838 16.5419 23.5392C16.5419 22.1656 17.5747 21.0482 18.8445 21.0482C19.0814 21.0482 19.3109 21.0923 19.5256 21.1644V18.1369C19.3035 18.1048 19.0777 18.0847 18.8445 18.0847C18.8037 18.0847 18.7667 18.0887 18.726 18.0887V20.4115C18.5076 20.3394 18.2818 20.2953 18.0449 20.2953Z" fill="#3EC1D3"/>
<path d="M26.9028 15.7845V18.0872C25.4813 18.0872 24.1635 17.5946 23.0899 16.7616V22.7887C23.0899 25.7962 20.8281 28.2471 18.0444 28.2471C16.9708 28.2471 15.9714 27.8787 15.1533 27.258C16.075 28.3272 17.3891 29 18.844 29C21.624 29 23.8895 26.5531 23.8895 23.5416V17.5145C24.963 18.3475 26.2809 18.8401 27.7024 18.8401V15.8766C27.4247 15.8766 27.1582 15.8446 26.9028 15.7845Z" fill="#FF165D"/>
<path d="M23.0913 22.7889V16.7619C24.1649 17.5949 25.4827 18.0874 26.9042 18.0874V15.7847C26.0824 15.5966 25.3606 15.116 24.8275 14.4552C23.9687 13.8505 23.3505 12.8814 23.1543 11.752H21.1479L21.1442 23.6339C21.0998 24.9635 20.0855 26.0328 18.8454 26.0328C18.0754 26.0328 17.398 25.6203 16.976 24.9955C16.243 24.575 15.7396 23.7461 15.7396 22.7889C15.7396 21.4154 16.7724 20.298 18.0421 20.298C18.279 20.298 18.5085 20.3421 18.7232 20.4142V18.0914C15.9987 18.1555 13.7998 20.5743 13.7998 23.5418C13.7998 24.9755 14.3144 26.2811 15.1547 27.2582C15.9728 27.8789 16.9723 28.2474 18.0458 28.2474C20.8259 28.2474 23.0913 25.7965 23.0913 22.7889Z" fill="white"/>
</svg>