<svg width="32" height="32" viewBox="0 0 32 32" fill="none" xmlns="http://www.w3.org/2000/svg">
<rect width="32" height="32" rx="16" fill="#03A9F4"/>
<path d="M23.3335 12.0874C22.8129 12.3283 22.2581 12.488 21.6797 12.5655C22.2747 12.1907 22.7289 11.6018 22.9424 10.892C22.3876 11.2409 21.7751 11.4874 21.1224 11.6249C20.5956 11.0332 19.8449 10.6667 19.0259 10.6667C17.4369 10.6667 16.1576 12.0274 16.1576 13.6954C16.1576 13.9354 16.1769 14.1661 16.2241 14.3858C13.838 14.2631 11.7266 13.0566 10.3082 11.2187C10.0606 11.672 9.91537 12.1907 9.91537 12.7492C9.91537 13.7978 10.4272 14.7274 11.1902 15.2655C10.7291 15.2563 10.2767 15.1151 9.8935 14.8926C9.8935 14.9018 9.8935 14.9138 9.8935 14.9258C9.8935 16.3972 10.8884 17.6194 12.193 17.9009C11.9594 17.9683 11.7047 18.0006 11.4405 18.0006C11.2567 18.0006 11.0712 17.9895 10.8971 17.9489C11.269 19.148 12.3242 20.0295 13.579 20.0581C12.6025 20.864 11.3626 21.3495 10.0204 21.3495C9.785 21.3495 9.55925 21.3384 9.3335 21.308C10.6049 22.1729 12.1116 22.6667 13.7365 22.6667C19.018 22.6667 21.9055 18.0514 21.9055 14.0507C21.9055 13.9169 21.9011 13.7877 21.895 13.6594C22.4646 13.2329 22.9432 12.7003 23.3335 12.0874Z" fill="white"/>
</svg>