<svg xmlns="http://www.w3.org/2000/svg" width="32" height="32"><path fill="#498ac9" d="M2.906 11.373h4.135c.295 0 .492-.197.492-.492s-.197-.492-.492-.492H2.906c-.295 0-.492.197-.492.492s.197.492.492.492zm4.135 2.756c-.295 0-.492.197-.492.492v.886c0 .295.197.492.492.492s.492-.197.492-.492v-.886c0-.197-.197-.492-.492-.492z"/><path fill="#fff" d="M10.487 8.124h19.691v13.784H10.487V8.124zm-8.861.098h6.695v15.654H1.626V8.222z"/><path fill="#498ac9" d="M29.587 7.533H11.275c-.886 0-1.575.689-1.575 1.575v11.815c0 .886.689 1.575 1.575 1.575h8.664v1.083h-2.757c-.295 0-.492.197-.492.492s.197.492.492.492h6.498c.295 0 .492-.197.492-.492s-.197-.492-.492-.492h-2.757v-1.083h8.664c.886 0 1.575-.689 1.575-1.575V9.108c0-.886-.689-1.575-1.575-1.575zm.59 13.39c0 .394-.197.591-.591.591H11.274c-.394 0-.591-.197-.591-.591V10.388h18.116c.295 0 .492-.197.492-.492s-.197-.492-.492-.492H10.782v-.295c0-.394.197-.591.591-.591h18.214c.394 0 .591.197.591.591v11.815zM8.518 7.533H1.429c-.295 0-.492.197-.492.492v15.95c0 .295.197.492.492.492h7.089c.295 0 .492-.197.492-.492V8.025c0-.295-.197-.492-.492-.492zm-.493 15.95H2.019V8.518h6.104v14.965z"/></svg>