<svg width="164" height="164" viewBox="0 0 164 164" fill="none" xmlns="http://www.w3.org/2000/svg">
<path d="M162.251 95.1063C162.276 115.099 154.817 134.376 141.341 149.144H22.6594C13.8821 139.504 7.58578 127.87 4.31527 115.249C1.04477 102.628 0.898526 89.3999 3.8892 76.7097C6.87987 64.0195 12.9174 52.2491 21.4794 42.4166C30.0415 32.5842 40.8702 24.986 53.0288 20.2792C65.1874 15.5724 78.3097 13.8989 91.2604 15.4033C104.211 16.9078 116.6 21.545 127.356 28.9137C138.112 36.2824 146.91 46.1608 152.99 57.6941C159.07 69.2275 162.249 82.0685 162.251 95.1063Z" fill="#E4F0E0"/>
<path d="M89.462 85.5533H7.38C7.56272 83.724 8.19265 81.9678 9.21427 80.4394C10.2359 78.911 11.6178 77.6575 13.2382 76.7892C14.8587 75.9209 16.6678 75.4646 18.5062 75.4605C20.3446 75.4564 22.1557 75.9046 23.78 76.7657C25.0218 73.8169 27.0911 71.291 29.7377 69.493C32.3843 67.6951 35.495 66.7022 38.6938 66.6342C41.8927 66.5663 45.0427 67.4263 47.7633 69.1102C50.4838 70.7941 52.6585 73.23 54.0243 76.1233C55.3558 75.4712 56.773 75.011 58.2337 74.7567C61.6536 74.1457 65.1795 74.668 68.2753 76.2443C71.3712 77.8206 73.8677 80.3646 75.3853 83.4897C77.562 82.0183 80.2114 81.4167 82.8101 81.8038C85.4088 82.191 87.7677 83.5387 89.421 85.5807L89.462 85.5533Z" fill="white"/>
<path d="M156.989 112.654H74.9071C75.0898 110.825 75.7197 109.069 76.7414 107.54C77.763 106.012 79.1449 104.758 80.7653 103.89C82.3858 103.022 84.1949 102.566 86.0333 102.562C87.8717 102.557 89.6828 103.006 91.3071 103.867C92.5376 100.895 94.6069 98.3451 97.2624 96.5295C99.9178 94.7139 103.044 93.7108 106.261 93.6427C109.477 93.5746 112.643 94.4444 115.373 96.1459C118.103 97.8474 120.278 100.307 121.633 103.224C122.965 102.572 124.382 102.112 125.843 101.858C129.263 101.242 132.791 101.762 135.888 103.339C138.984 104.916 141.48 107.463 142.994 110.591C145.173 109.118 147.825 108.516 150.426 108.904C153.027 109.291 155.388 110.639 157.044 112.682L156.989 112.654Z" fill="white"/>
<path d="M48.421 58.5617H20.1993C20.2996 57.5452 20.7992 56.6101 21.5885 55.9618C22.3777 55.3134 23.3921 55.0049 24.4087 55.104C24.9104 55.1578 25.3973 55.3062 25.8437 55.5414C26.2688 54.5244 26.9804 53.653 27.8917 53.0332C28.8031 52.4133 29.8751 52.0717 30.977 52.05C32.079 52.0283 33.1636 52.3273 34.0987 52.9108C35.0338 53.4943 35.7791 54.337 36.244 55.3364C36.6997 55.104 37.1882 54.9427 37.6927 54.858C38.8702 54.6438 40.0855 54.8219 41.1521 55.365C42.2186 55.9082 43.0774 56.7863 43.5967 57.8647C44.3419 57.3518 45.2536 57.14 46.1485 57.2719C47.0435 57.4037 47.8554 57.8694 48.421 58.5754V58.5617Z" fill="white"/>
<path d="M158.943 86.5373H130.708C130.803 85.5852 131.249 84.7025 131.959 84.0609C132.668 83.4193 133.592 83.0647 134.548 83.066C135.183 83.0575 135.809 83.2129 136.366 83.517C136.794 82.5041 137.506 81.6368 138.417 81.0196C139.327 80.4024 140.396 80.0617 141.495 80.0386C142.595 80.0154 143.677 80.3109 144.613 80.8893C145.548 81.4677 146.296 82.3044 146.766 83.2983C147.224 83.0743 147.712 82.9177 148.215 82.8337C149.39 82.6226 150.603 82.8023 151.666 83.3453C152.73 83.8882 153.587 84.7646 154.105 85.8403C154.853 85.3266 155.767 85.1144 156.664 85.2462C157.561 85.378 158.375 85.8441 158.943 86.551V86.5373Z" fill="white"/>
<path d="M73.3763 134.521H25.9667C26.1229 132.919 26.8701 131.432 28.0626 130.351C29.2551 129.269 30.8075 128.671 32.4173 128.672C33.4861 128.664 34.5395 128.927 35.4787 129.437C36.1945 127.731 37.3898 126.269 38.9197 125.228C40.4497 124.187 42.2486 123.612 44.0986 123.573C45.9486 123.534 47.7702 124.033 49.3427 125.008C50.9152 125.983 52.1712 127.393 52.9583 129.068C53.7293 128.694 54.5478 128.427 55.391 128.275C57.368 127.923 59.406 128.226 61.1947 129.139C62.9834 130.052 64.4247 131.524 65.2993 133.332C66.5553 132.473 68.089 132.12 69.5939 132.343C71.0989 132.566 72.4643 133.349 73.4173 134.535L73.3763 134.521Z" fill="white"/>
<path d="M152.875 109.853C153.513 109.744 154.167 109.787 154.785 109.98C155.402 110.172 155.966 110.508 156.429 110.96C157.672 111.957 158.643 111.274 160.72 111.424C160.734 111.357 160.734 111.287 160.72 111.219C159.08 110.659 158.738 111.219 157.194 110.358C156.612 109.879 155.915 109.561 155.172 109.434C154.429 109.307 153.666 109.376 152.957 109.634C152.918 109.702 152.89 109.776 152.875 109.853Z" fill="#20100D"/>
<path d="M155.8 113.433C153.436 112.709 152.575 111.11 152.78 110.03C152.773 109.967 152.773 109.903 152.78 109.839C151.85 111.985 153.668 113.939 155.513 114.376C156.454 114.681 157.475 114.623 158.375 114.213C159.275 113.803 159.99 113.072 160.378 112.162C159.968 113.228 158.205 114.144 155.8 113.433Z" fill="#3D2517"/>
<path d="M152.834 110.044C152.629 111.124 153.49 112.777 155.855 113.447C156.663 113.794 157.565 113.857 158.413 113.626C159.262 113.396 160.008 112.884 160.529 112.176C160.653 111.945 160.718 111.687 160.72 111.424C158.643 111.274 157.686 111.957 156.429 110.96C155.966 110.508 155.402 110.172 154.785 109.98C154.167 109.787 153.513 109.744 152.875 109.853C152.854 109.915 152.84 109.979 152.834 110.044Z" fill="#6C492B"/>
<path d="M152.957 109.634C153.666 109.376 154.429 109.307 155.172 109.434C155.915 109.561 156.612 109.879 157.194 110.358C158.738 111.26 159.08 110.659 160.72 111.219C160.602 110.635 160.34 110.089 159.958 109.631C159.577 109.173 159.087 108.817 158.533 108.595C156.811 107.666 153.695 107.748 152.957 109.634Z" fill="#6C492B"/>
<path d="M160.706 111.219C160.716 111.695 160.539 112.156 160.214 112.504C159.889 112.843 159.492 113.105 159.053 113.269C158.176 113.591 157.221 113.634 156.319 113.392C155.39 113.215 154.526 112.79 153.818 112.162C153.461 111.859 153.188 111.468 153.026 111.028C152.935 110.811 152.885 110.58 152.875 110.345C152.871 110.112 152.908 109.881 152.985 109.661C152.887 109.886 152.835 110.127 152.834 110.372C152.835 110.614 152.877 110.854 152.957 111.083C153.126 111.539 153.397 111.95 153.75 112.285C154.456 112.966 155.335 113.439 156.292 113.652C157.238 113.893 158.236 113.835 159.148 113.488C159.595 113.297 159.996 113.013 160.324 112.654C160.473 112.469 160.593 112.261 160.679 112.039C160.759 111.807 160.791 111.56 160.775 111.315L160.706 111.219Z" fill="#6C492B"/>
<path d="M157.167 114.663C156.549 114.754 155.92 114.703 155.325 114.513C154.731 114.324 154.187 114.001 153.736 113.57C153.143 113.116 152.726 112.469 152.557 111.741C152.387 111.013 152.476 110.249 152.807 109.579C152.833 109.554 152.867 109.54 152.903 109.54C152.938 109.54 152.973 109.554 152.998 109.579C153.024 109.607 153.039 109.644 153.039 109.682C153.039 109.72 153.024 109.757 152.998 109.784C152.689 110.399 152.609 111.104 152.771 111.772C152.934 112.441 153.329 113.03 153.887 113.433C154.707 114.116 155.747 114.48 156.814 114.458C157.881 114.435 158.904 114.028 159.695 113.31C159.723 113.284 159.76 113.27 159.798 113.27C159.836 113.27 159.872 113.284 159.9 113.31C159.915 113.323 159.926 113.339 159.934 113.357C159.942 113.374 159.946 113.393 159.946 113.413C159.946 113.432 159.942 113.451 159.934 113.469C159.926 113.487 159.915 113.503 159.9 113.515C159.112 114.142 158.166 114.54 157.167 114.663Z" fill="#010202"/>
<path d="M156.306 113.543C155.694 113.502 155.099 113.331 154.559 113.041C154.019 112.751 153.548 112.349 153.176 111.862C153.15 111.834 153.136 111.797 153.136 111.759C153.136 111.721 153.15 111.685 153.176 111.657C153.204 111.631 153.241 111.616 153.279 111.616C153.317 111.616 153.353 111.631 153.381 111.657C153.728 112.104 154.166 112.472 154.665 112.738C155.164 113.004 155.714 113.162 156.278 113.201C156.298 113.203 156.317 113.208 156.334 113.218C156.351 113.227 156.365 113.24 156.377 113.255C156.389 113.271 156.397 113.289 156.401 113.308C156.405 113.326 156.405 113.346 156.401 113.365C156.41 113.401 156.406 113.439 156.388 113.472C156.37 113.505 156.341 113.53 156.306 113.543Z" fill="#010202"/>
<path d="M5.63074 90.8834C6.24398 90.775 6.87428 90.8152 7.46876 91.0007C8.06325 91.1862 8.6046 91.5115 9.0474 91.9494C10.2637 92.906 11.1931 92.25 13.1474 92.3867V92.1954C11.5757 91.6624 11.2477 92.1954 9.75807 91.3754C9.19892 90.9041 8.52391 90.591 7.803 90.4685C7.0821 90.3459 6.34153 90.4184 5.65807 90.6784L5.63074 90.8834Z" fill="#20100D"/>
<path d="M8.50077 94.3C6.2321 93.6167 5.39843 92.0723 5.58977 91.02C5.58489 90.9609 5.58489 90.9015 5.58977 90.8423C4.7151 92.9197 6.46443 94.7647 8.3231 95.2157C9.22775 95.5066 10.2084 95.4493 11.073 95.055C11.9376 94.6606 12.6238 93.9576 12.9971 93.0837C12.4951 93.7644 11.7775 94.2552 10.9611 94.476C10.1446 94.6969 9.27745 94.6348 8.50077 94.3Z" fill="#3D2517"/>
<path d="M5.58969 91.061C5.39836 92.1134 6.23203 93.6577 8.50069 94.341C9.27738 94.6759 10.1446 94.7379 10.961 94.517C11.7774 94.2962 12.4951 93.8054 12.997 93.1247C13.1209 92.8983 13.1867 92.6447 13.1884 92.3867C11.193 92.25 10.2637 92.9197 9.08836 91.9494C8.64686 91.5096 8.10564 91.183 7.51075 90.9974C6.91587 90.8118 6.28495 90.7727 5.67169 90.8834L5.58969 91.061Z" fill="#6C492B"/>
<path d="M5.71277 90.6783C6.39623 90.4183 7.1368 90.3459 7.8577 90.4684C8.57861 90.591 9.25362 90.9041 9.81277 91.3754C11.3024 92.2364 11.6304 91.6624 13.2021 92.1954C13.0897 91.6395 12.8428 91.1197 12.4831 90.6813C12.1233 90.243 11.6617 89.8994 11.1384 89.6807C9.41644 88.8334 6.42344 88.8333 5.71277 90.6783Z" fill="#6C492B"/>
<path d="M13.1747 92.1953C13.1795 92.4278 13.1425 92.6593 13.0654 92.8787C12.9716 93.0831 12.8471 93.2721 12.6964 93.439C12.3865 93.7639 12.0084 94.016 11.5894 94.177C10.7333 94.4833 9.80506 94.5262 8.92438 94.3C8.0323 94.1212 7.20283 93.7112 6.51905 93.111C6.17752 92.8154 5.91457 92.4398 5.75372 92.0177C5.66851 91.8086 5.61774 91.587 5.60338 91.3617C5.6052 91.1342 5.64208 90.9083 5.71272 90.692C5.62687 90.9099 5.58059 91.1413 5.57605 91.3753C5.57797 91.6073 5.61483 91.8377 5.68538 92.0587C5.84335 92.5018 6.10589 92.9003 6.45072 93.2203C7.14484 93.85 7.9938 94.2839 8.91072 94.4777C9.81645 94.7113 10.7727 94.6539 11.6441 94.3137C12.0815 94.1401 12.4707 93.8635 12.7784 93.5073C12.9265 93.3386 13.0423 93.144 13.1201 92.9333C13.1883 92.7077 13.2161 92.4717 13.2021 92.2363L13.1747 92.1953Z" fill="#6C492B"/>
<path d="M9.78539 95.5163C9.19458 95.6042 8.59148 95.5549 8.02273 95.3725C7.45398 95.19 6.93482 94.8792 6.50539 94.464C5.93486 94.0265 5.53237 93.4058 5.36562 92.7064C5.19886 92.007 5.278 91.2716 5.58972 90.6237C5.61527 90.5986 5.64961 90.5846 5.68539 90.5846C5.72116 90.5846 5.75551 90.5986 5.78105 90.6237C5.80609 90.6492 5.82012 90.6835 5.82012 90.7193C5.82012 90.7551 5.80609 90.7894 5.78105 90.815C5.50216 91.4113 5.44104 92.0865 5.60833 92.7232C5.77562 93.3599 6.16073 93.9178 6.69672 94.3C7.48835 94.9608 8.49322 95.3113 9.52411 95.2862C10.555 95.261 11.5416 94.862 12.3001 94.1633C12.3277 94.1447 12.3613 94.1369 12.3943 94.1413C12.4274 94.1457 12.4577 94.1621 12.4795 94.1873C12.5014 94.2125 12.5132 94.2448 12.5129 94.2782C12.5126 94.3115 12.5001 94.3436 12.4777 94.3683C11.7073 94.9986 10.7735 95.3967 9.78539 95.5163Z" fill="#010202"/>
<path d="M8.93807 94.4367C8.34941 94.3979 7.77605 94.2325 7.25716 93.9518C6.73827 93.6711 6.28605 93.2818 5.9314 92.8104C5.90636 92.7848 5.89233 92.7505 5.89233 92.7147C5.89233 92.6789 5.90636 92.6446 5.9314 92.619C5.95833 92.5968 5.99216 92.5847 6.02707 92.5847C6.06198 92.5847 6.0958 92.5968 6.12273 92.619C6.45157 93.0406 6.86425 93.3894 7.33471 93.6435C7.80516 93.8975 8.32319 94.0513 8.85607 94.095C8.8754 94.0966 8.89418 94.1022 8.91116 94.1115C8.92815 94.1209 8.94295 94.1337 8.95458 94.1493C8.96622 94.1648 8.97442 94.1826 8.97864 94.2015C8.98286 94.2204 8.98301 94.24 8.97907 94.259C8.97907 94.259 9.0064 94.423 8.93807 94.4367Z" fill="#010202"/>
<path d="M60.1333 27.4837C60.6978 27.3819 61.2785 27.4181 61.8259 27.5895C62.3733 27.7609 62.871 28.0622 63.2767 28.4677C64.3837 29.356 65.2447 28.741 67.0897 28.8777V28.7C65.641 28.1944 65.3267 28.7 63.96 27.9347C63.4333 27.5031 62.8011 27.2198 62.1284 27.1141C61.4557 27.0084 60.767 27.0841 60.1333 27.3334C60.1286 27.3834 60.1286 27.4337 60.1333 27.4837Z" fill="#20100D"/>
<path d="M62.7028 30.668C60.5981 30.0394 59.8328 28.6044 59.9694 27.6477C59.9632 27.5932 59.9632 27.5382 59.9694 27.4837C59.1494 29.397 60.7621 31.0917 62.4431 31.5154C63.2769 31.783 64.1805 31.7296 64.9769 31.3655C65.7733 31.0014 66.405 30.353 66.7481 29.5474C66.2901 30.152 65.646 30.5893 64.915 30.7918C64.1839 30.9943 63.4066 30.9508 62.7028 30.668Z" fill="#3D2517"/>
<path d="M60.024 27.6477C59.8327 28.6044 60.598 30.0394 62.7573 30.668C63.468 30.9644 64.2572 31.0151 64.9999 30.8121C65.7426 30.6091 66.3963 30.164 66.8573 29.5474C66.9704 29.342 67.0314 29.1121 67.035 28.8777C65.19 28.741 64.3017 29.356 63.222 28.4677C62.8144 28.065 62.3165 27.7656 61.7697 27.5944C61.2229 27.4233 60.6431 27.3853 60.0787 27.4837C60.0787 27.4837 60.0377 27.5794 60.024 27.6477Z" fill="#6C492B"/>
<path d="M60.1334 27.3333C60.7614 27.1025 61.4388 27.0404 62.0983 27.1531C62.7577 27.2658 63.3761 27.5494 63.8918 27.9757C65.2584 28.7683 65.5728 28.2353 67.0214 28.741C66.9177 28.2265 66.6888 27.7454 66.3552 27.3402C66.0215 26.935 65.5932 26.6182 65.1081 26.4177C63.5501 25.543 60.7894 25.625 60.1334 27.3333Z" fill="#6C492B"/>
<path d="M66.9667 28.7C66.9714 28.9103 66.9342 29.1193 66.8574 29.315C66.7776 29.5051 66.6668 29.6807 66.5294 29.8344C66.2412 30.1337 65.8915 30.3668 65.5044 30.5177C64.7149 30.8054 63.8562 30.8435 63.0444 30.627C62.2221 30.4664 61.4578 30.0889 60.8304 29.5337C60.5207 29.2625 60.2815 28.9201 60.1334 28.536C60.0555 28.3396 60.0094 28.132 59.9967 27.921C60.0111 27.7192 60.0572 27.5209 60.1334 27.3334C60.0554 27.5346 60.0093 27.7467 59.9967 27.962C59.9987 28.1806 60.0356 28.3975 60.106 28.6044C60.2612 29.0079 60.5039 29.3719 60.8167 29.6704C61.4521 30.248 62.2308 30.6444 63.0717 30.8184C63.9121 31.0277 64.7972 30.9655 65.6 30.6407C65.9996 30.48 66.3555 30.2271 66.6387 29.9027C66.7814 29.7427 66.8926 29.5572 66.9667 29.356C67.02 29.1406 67.02 28.9155 66.9667 28.7Z" fill="#6C492B"/>
<path d="M63.8917 31.7614C63.3444 31.8409 62.7862 31.7935 62.2601 31.6228C61.734 31.4522 61.2542 31.1629 60.8577 30.7774C60.3292 30.3761 59.957 29.8033 59.8048 29.1573C59.6527 28.5114 59.7302 27.8327 60.0241 27.2377C60.0343 27.2261 60.047 27.2167 60.0611 27.2104C60.0752 27.204 60.0906 27.2007 60.1061 27.2007C60.1216 27.2007 60.1369 27.204 60.1511 27.2104C60.1652 27.2167 60.1778 27.2261 60.1881 27.2377C60.2092 27.2625 60.2209 27.294 60.2209 27.3265C60.2209 27.3591 60.2092 27.3906 60.1881 27.4154C59.9189 27.9624 59.8509 28.5867 59.9958 29.1789C60.1407 29.7711 60.4894 30.2934 60.9807 30.6544C61.708 31.2614 62.6303 31.5847 63.5774 31.5646C64.5244 31.5445 65.4322 31.1824 66.1331 30.545C66.1446 30.533 66.1583 30.5235 66.1736 30.517C66.1889 30.5105 66.2053 30.5071 66.2219 30.5071C66.2385 30.5071 66.2549 30.5105 66.2702 30.517C66.2855 30.5235 66.2993 30.533 66.3107 30.545C66.3227 30.5565 66.3323 30.5703 66.3388 30.5856C66.3453 30.6008 66.3487 30.6173 66.3487 30.6339C66.3487 30.6505 66.3453 30.6669 66.3388 30.6822C66.3323 30.6974 66.3227 30.7112 66.3107 30.7227C65.612 31.2793 64.7765 31.638 63.8917 31.7614Z" fill="#010202"/>
<path d="M63.1127 30.75C62.5767 30.7132 62.055 30.561 61.5832 30.3039C61.1115 30.0468 60.7008 29.6908 60.3794 29.2604C60.3582 29.2356 60.3466 29.2041 60.3466 29.1715C60.3466 29.139 60.3582 29.1075 60.3794 29.0827C60.4051 29.0638 60.4363 29.0536 60.4682 29.0536C60.5001 29.0536 60.5313 29.0638 60.557 29.0827C60.869 29.4774 61.2598 29.8028 61.7046 30.0381C62.1493 30.2734 62.6382 30.4135 63.14 30.4494C63.1562 30.4511 63.1719 30.456 63.1862 30.4638C63.2005 30.4716 63.2131 30.4821 63.2232 30.4949C63.2334 30.5076 63.241 30.5222 63.2454 30.5378C63.2499 30.5535 63.2513 30.5699 63.2494 30.586C63.2494 30.586 63.1674 30.75 63.1127 30.75Z" fill="#010202"/>
<path d="M129.464 114.39C129.625 114.338 129.774 114.254 129.902 114.144L129.464 114.39Z" fill="#333351"/>
<path d="M107.693 118.025H107.037C107.255 118.053 107.476 118.053 107.693 118.025Z" fill="#333351"/>
<path d="M72.4334 90.2001C56.0334 105.548 45.8107 110.14 39.6334 110.837C37.7957 111.098 35.9222 110.92 34.1667 110.317C33.1795 109.929 32.3441 109.233 31.785 108.331C31.226 107.43 30.9732 106.372 31.0644 105.315C31.5837 98.318 37.1597 94.1634 40.385 92.3184C42.4373 91.1242 44.3809 89.7523 46.1934 88.2184C55.5687 79.1027 65.3267 69.2627 70.6567 67.8824L71.7227 81.3167L72.4334 90.2001Z" fill="#70BA69"/>
<path d="M64.2334 88.8334C63.124 89.3664 61.8936 89.5974 60.6664 89.503C60.188 89.503 59.655 89.503 59.0674 89.503L57.769 86.5784H63.55C63.8059 86.5944 64.0508 86.6883 64.2518 86.8474C64.4528 87.0065 64.6003 87.2233 64.6747 87.4686C64.749 87.7139 64.7466 87.9762 64.6677 88.2201C64.5889 88.464 64.4373 88.678 64.2334 88.8334Z" fill="white" stroke="#1E1E1C" stroke-width="0.5" stroke-linecap="round" stroke-linejoin="round"/>
<path d="M60.6664 89.503C60.188 89.503 59.655 89.503 59.0674 89.503L57.769 86.5784H60.7757C60.9097 87.5522 60.8727 88.5419 60.6664 89.503Z" fill="#3C3C3B"/>
<path d="M124.831 82.4373C123.465 84.6923 122.235 86.9473 121.128 89.2707C117.906 96.2889 115.228 103.544 113.119 110.973C112.075 114.356 111.299 117.815 110.796 121.319C110.714 121.934 110.632 122.563 110.563 123.191C109.807 129.741 110.009 136.366 111.165 142.858L112.258 149.021H65.3541C67.6227 137.022 70.3561 126.909 69.1671 114.035C58.1381 102.596 66.9667 90.364 69.7001 88.314L70.7661 67.9233L77.8454 67.609C80.2141 67.5134 82.5862 67.5407 84.9521 67.691C86.7561 67.8003 88.5464 67.9917 90.3231 68.2513C91.0747 68.3607 91.8401 68.4837 92.5917 68.6203C95.5626 69.1615 98.4938 69.9012 101.366 70.8344L105.739 72.201C108.34 72.9531 110.866 73.946 113.283 75.1667C113.884 75.4673 114.472 75.7817 115.046 76.1097C115.866 76.588 116.686 77.08 117.479 77.5993L117.602 77.6813L124.831 82.4373Z" fill="#F6C019"/>
<path d="M124.831 82.4374C127.264 84.5663 129.109 87.2839 130.191 90.33C131.272 93.3761 131.554 96.6489 131.009 99.835L123.697 142.653L108.951 137.336L111.684 113.42C112.304 108.151 113.439 102.955 115.073 97.908L117.028 91.8674L124.831 82.4374Z" fill="#70BA69"/>
<path d="M51.3457 93.0017C51.3173 95.8854 50.4791 98.703 48.9267 101.133C47.9255 102.719 46.5596 104.043 44.943 104.994C43.3265 105.945 41.506 106.495 39.6334 106.6C36.5584 106.764 34.8637 105.479 34.9594 102.336C35.0309 100.882 35.4631 99.4686 36.217 98.2232C36.9709 96.9778 38.0229 95.9395 39.2781 95.2021L43.5967 92.619L45.5784 91.4437L51.3457 93.0017Z" fill="white" stroke="#1E1E1C" stroke-width="0.5" stroke-linecap="round" stroke-linejoin="round"/>
<path d="M51.3458 93.0017C51.3442 94.9849 50.9397 96.947 50.1568 98.769C49.4277 98.9581 48.6813 99.0726 47.9291 99.1107C44.8404 99.2747 43.1458 97.99 43.2551 94.8467C43.2779 94.081 43.4067 93.3221 43.6378 92.5917L45.6194 91.4164L51.3458 93.0017Z" fill="#3C3C3B"/>
<path d="M61.5 89.7627L59.7234 91.1294C59.0927 90.3071 58.1741 89.7542 57.1523 89.5817C56.1305 89.4093 55.0813 89.6302 54.2157 90.2L51.8377 91.7717C51.1263 92.2423 50.5794 92.9232 50.2732 93.7193C49.967 94.5155 49.9167 95.3873 50.1294 96.2134L50.2387 96.596L48.872 97.3887L48.298 95.2157C48.0724 94.377 48.1189 93.4884 48.4308 92.6778C48.7427 91.8673 49.304 91.1767 50.0337 90.7057L55.022 87.4667C55.8675 86.9235 56.8829 86.7097 57.8756 86.866C58.8682 87.0222 59.769 87.5375 60.4067 88.314L61.5 89.7627Z" fill="#333351"/>
<path d="M45.2231 93.6987L44.7448 93.2614C44.4271 92.9804 44.1918 92.6183 44.0642 92.2138C43.9366 91.8094 43.9215 91.3778 44.0205 90.9654C44.1459 90.4891 44.3295 90.0301 44.5671 89.5987C44.4261 89.0708 44.4264 88.5152 44.5679 87.9875C44.7095 87.4597 44.9872 86.9785 45.3735 86.592C45.3735 86.592 46.0295 83.9954 46.9178 83.517C46.9178 83.517 47.3551 79.048 53.1771 81.5217L54.4071 82.328C56.246 83.5454 57.8521 85.082 59.1494 86.8654L60.5161 88.7104C60.6225 88.8578 60.6839 89.0329 60.6931 89.2145C60.7022 89.3961 60.6587 89.5764 60.5677 89.7338C60.4767 89.8912 60.3422 90.019 60.1803 90.1017C60.0183 90.1844 59.836 90.2186 59.6551 90.2C58.9308 90.1044 57.8511 89.503 56.2931 87.7127C56.2931 87.7127 57.2361 91.1977 53.4641 90.241C53.4641 90.241 56.1975 92.25 52.2615 92.8377C52.2615 92.8377 54.0244 95.6804 50.3891 95.7077C48.4786 95.6966 46.6392 94.9813 45.2231 93.6987Z" fill="white" stroke="#1E1E1C" stroke-width="0.5" stroke-linecap="round" stroke-linejoin="round"/>
<g style="mix-blend-mode:multiply" opacity="0.5">
<g style="mix-blend-mode:multiply" opacity="0.5">
<path d="M56.2931 88.0543C56.2002 88.0502 56.1124 88.0111 56.0471 87.945C54.5522 86.6446 52.9156 85.5168 51.1681 84.583C51.0872 84.537 51.0276 84.4612 51.0021 84.3718C50.9765 84.2823 50.9871 84.1864 51.0314 84.1047C51.0516 84.0621 51.0803 84.0242 51.1158 83.9933C51.1513 83.9624 51.1928 83.9391 51.2377 83.925C51.2827 83.9109 51.33 83.9062 51.3768 83.9113C51.4236 83.9163 51.4689 83.931 51.5097 83.9543C53.3208 84.9264 55.013 86.1051 56.5527 87.4667C56.6171 87.5351 56.653 87.6255 56.653 87.7195C56.653 87.8135 56.6171 87.9039 56.5527 87.9724C56.4798 88.0318 56.3869 88.0611 56.2931 88.0543Z" fill="#3C3C3B"/>
</g>
</g>
<g style="mix-blend-mode:multiply" opacity="0.5">
<g style="mix-blend-mode:multiply" opacity="0.5">
<path d="M53.4641 90.5827C53.4009 90.5956 53.3358 90.5956 53.2727 90.5827L48.7354 87.8493C48.6538 87.8004 48.5951 87.7211 48.572 87.6288C48.5489 87.5365 48.5634 87.4389 48.6124 87.3573C48.6613 87.2758 48.7406 87.217 48.8329 87.1939C48.9252 87.1709 49.0228 87.1854 49.1044 87.2343L53.6554 89.9677C53.695 89.9927 53.7292 90.0253 53.7562 90.0636C53.7831 90.1019 53.8022 90.1452 53.8124 90.1909C53.8225 90.2367 53.8236 90.2839 53.8154 90.3301C53.8072 90.3762 53.79 90.4202 53.7647 90.4597C53.7288 90.5035 53.6824 90.5377 53.6299 90.5592C53.5774 90.5807 53.5204 90.5887 53.4641 90.5827Z" fill="#3C3C3B"/>
</g>
</g>
<g style="mix-blend-mode:multiply" opacity="0.5">
<g style="mix-blend-mode:multiply" opacity="0.5">
<path d="M52.2614 93.1794H52.1384L47.4371 91.5667C47.3509 91.533 47.2813 91.467 47.243 91.3828C47.2047 91.2986 47.2008 91.2028 47.2321 91.1157C47.2458 91.0707 47.2687 91.029 47.2993 90.9932C47.3299 90.9575 47.3675 90.9284 47.4098 90.9079C47.4522 90.8874 47.4983 90.8758 47.5453 90.8739C47.5923 90.8721 47.6392 90.8799 47.6831 90.897L52.3708 92.5507C52.445 92.581 52.5067 92.6356 52.546 92.7055C52.5853 92.7754 52.5998 92.8565 52.5871 92.9357C52.5745 93.0149 52.5354 93.0875 52.4762 93.1416C52.4171 93.1958 52.3414 93.2283 52.2614 93.234V93.1794Z" fill="#3C3C3B"/>
</g>
</g>
<path d="M70.6431 102.937L56.6894 113.871C55.9909 114.333 55.1814 114.599 54.345 114.643C53.5086 114.686 52.6758 114.504 51.9334 114.117C49.8584 113.043 48.1065 111.437 46.8575 109.463C45.6086 107.489 44.9077 105.217 44.8267 102.883C44.7406 101.997 44.9081 101.106 45.3098 100.312C45.7116 99.518 46.3309 98.8549 47.0954 98.4L61.5001 89.7627C68.7707 92.168 70.5884 96.5277 70.6431 102.937Z" fill="#74C9E3"/>
<path d="M70.6431 102.937C59.7097 100.764 61.5547 89.7627 61.5547 89.7627C68.7707 92.168 70.5884 96.5277 70.6431 102.937Z" fill="#74C9E3"/>
<g style="mix-blend-mode:multiply">
<path d="M70.6431 102.937C59.7097 100.764 61.5547 89.7627 61.5547 89.7627C68.7707 92.168 70.5884 96.5277 70.6431 102.937Z" fill="#74C9E3"/>
</g>
<path d="M69.7001 101.133C70.3721 101.156 71.0233 101.371 71.5759 101.754C72.1285 102.137 72.5591 102.671 72.8161 103.293C73.3224 104.535 73.533 105.878 73.4311 107.215C73.3391 108.554 73.4125 109.899 73.6498 111.219C74.0051 112.668 74.8524 114.021 74.7841 115.511L71.7501 115.36C72.094 113.709 71.9902 111.997 71.4494 110.399C70.9064 108.815 70.4771 107.193 70.1648 105.548C70.1925 104.35 69.833 103.176 69.1398 102.199" fill="#74C9E3"/>
<path d="M69.7001 101.133C70.3721 101.156 71.0233 101.371 71.5759 101.754C72.1285 102.137 72.5591 102.671 72.8161 103.293C73.3224 104.535 73.533 105.878 73.4311 107.215C73.3391 108.554 73.4125 109.899 73.6498 111.219C74.0051 112.668 74.8524 114.021 74.7841 115.511L71.7501 115.36C72.094 113.709 71.9902 111.997 71.4494 110.399C70.9064 108.815 70.4771 107.193 70.1648 105.548C70.1925 104.35 69.833 103.176 69.1398 102.199" fill="white"/>
<path d="M68.6477 100.928C68.2225 100.793 67.8069 100.628 67.4041 100.436C66.6524 100.095 65.9281 99.712 65.2174 99.302C64.5068 98.892 64.0421 98.482 63.4271 98.1403C62.7786 97.811 62.0739 97.607 61.3497 97.539C60.5389 97.4319 59.7211 97.3862 58.9034 97.4023C57.2497 97.4023 55.5961 97.4024 53.9561 97.6347C52.9857 97.744 52.0154 97.867 51.0314 97.8943C50.0062 97.909 49.0026 98.1917 48.1204 98.7144H48.0111C47.3144 99.1316 46.7514 99.7391 46.3883 100.465C46.0251 101.192 45.8769 102.007 45.9611 102.814C46.0328 104.95 46.6719 107.027 47.8129 108.834C48.9538 110.64 50.5554 112.11 52.4527 113.092C53.1263 113.443 53.881 113.609 54.6398 113.573C55.3985 113.537 56.1341 113.3 56.7714 112.887L69.9871 102.814C69.9871 102.24 69.9871 101.666 69.9187 101.133C69.7001 101.051 68.9211 101.024 68.6477 100.928Z" fill="white"/>
<path d="M47.2321 107.762C47.5115 107.908 47.8044 108.027 48.1067 108.117C48.995 108.367 49.9186 108.469 50.8401 108.418C52.662 108.424 54.4263 107.78 55.8147 106.6C56.6621 105.944 57.4547 105.233 58.3294 104.618C59.2354 103.993 60.1752 103.418 61.1447 102.896C63.1003 101.762 65.236 100.972 67.4587 100.559H67.3494C66.5977 100.218 65.8734 99.8351 65.1627 99.4251C64.4521 99.0151 63.9874 98.6051 63.3724 98.2634C62.7239 97.9341 62.0192 97.73 61.2951 97.6621C60.4842 97.5549 59.6665 97.5092 58.8487 97.5254C57.1951 97.5254 55.5414 97.5254 53.9014 97.7577C52.9311 97.8671 51.9607 97.9901 50.9767 98.0174C49.9515 98.0321 48.9479 98.3148 48.0657 98.8374H47.9564C47.2598 99.2547 46.6967 99.8622 46.3336 100.588C45.9704 101.315 45.8222 102.13 45.9064 102.937C46.061 104.611 46.5097 106.244 47.2321 107.762Z" fill="#FDEEEB"/>
<path d="M85.8814 122.016C85.3454 122.016 84.8105 121.97 84.2823 121.879L84.501 120.513C85.2785 120.695 86.0856 120.711 86.8697 120.56C87.6538 120.409 88.3974 120.095 89.052 119.638C90.4583 118.261 91.2639 116.385 91.2934 114.417C91.3011 114.336 91.2917 114.254 91.2658 114.176C91.2399 114.098 91.1981 114.027 91.143 113.966C91.0846 113.901 91.013 113.849 90.9328 113.814C90.8527 113.778 90.7659 113.76 90.6783 113.761H85.4577V112.395H90.6783C90.9577 112.394 91.2341 112.451 91.4905 112.562C91.7469 112.672 91.9778 112.835 92.1688 113.039C92.3598 113.242 92.5068 113.483 92.6007 113.746C92.6946 114.009 92.7334 114.289 92.7147 114.568C92.7051 115.739 92.4579 116.897 91.9881 117.971C91.5183 119.044 90.8356 120.011 89.9813 120.813C88.7944 121.675 87.3459 122.1 85.8814 122.016Z" fill="#B9E1F1"/>
<path d="M63.2768 110.386C63.1901 110.384 63.104 110.4 63.0235 110.432C62.9431 110.464 62.87 110.512 62.8087 110.574C62.7474 110.635 62.6992 110.708 62.6669 110.788C62.6346 110.869 62.6189 110.955 62.6208 111.042V114.322C62.6262 116.56 63.2328 118.755 64.3772 120.679C65.5216 122.602 67.1617 124.183 69.1261 125.255C69.1261 125.59 69.2581 125.911 69.4935 126.149C69.7289 126.387 70.0487 126.522 70.3834 126.526H80.0867C80.2542 126.526 80.42 126.493 80.5743 126.428C80.7287 126.363 80.8685 126.268 80.9856 126.148C81.1027 126.028 81.1948 125.887 81.2563 125.731C81.3179 125.575 81.3477 125.409 81.3441 125.241V125.132C83.2607 124.042 84.8544 122.463 85.9634 120.557C87.0724 118.651 87.6571 116.486 87.6581 114.281V111.001C87.6581 110.913 87.6407 110.827 87.6069 110.746C87.5731 110.666 87.5235 110.593 87.4611 110.532C87.3988 110.471 87.3248 110.423 87.2437 110.391C87.1625 110.358 87.0757 110.343 86.9884 110.345L63.2768 110.386Z" fill="#B9E1F1"/>
<g style="mix-blend-mode:multiply" opacity="0.67">
<path d="M86.9883 110.386C87.0756 110.384 87.1624 110.4 87.2436 110.432C87.3247 110.464 87.3987 110.512 87.461 110.573C87.5234 110.634 87.573 110.707 87.6068 110.787C87.6406 110.868 87.658 110.954 87.658 111.042V114.322C87.657 116.527 87.0723 118.692 85.9633 120.598C84.8543 122.504 83.2606 124.083 81.344 125.173V125.282C81.3476 125.45 81.3178 125.616 81.2562 125.772C81.1947 125.928 81.1027 126.07 80.9855 126.189C80.8684 126.309 80.7286 126.404 80.5742 126.469C80.4199 126.534 80.2541 126.567 80.0867 126.567H70.3833C70.0523 126.556 69.7366 126.425 69.495 126.198C69.3526 126.051 69.2452 125.873 69.1807 125.679L70.5473 125.173C73.6912 124.079 76.4535 122.103 78.5038 119.48C80.5542 116.858 81.8059 113.701 82.1093 110.386H86.9883Z" fill="#B9E1F1"/>
</g>
<path d="M67.4314 111.766H63.3314C63.7141 120.362 68.6341 122.809 68.6341 122.809C65.6001 116.03 67.4314 111.766 67.4314 111.766Z" fill="white"/>
<path d="M108.623 129.123H108.349C102.544 128.411 96.8826 126.807 91.5668 124.367L86.7424 122.153C86.7424 122.153 84.4601 121.128 79.1028 121.524L72.7068 120.827C72.3338 120.778 71.9547 120.84 71.6169 121.005C71.279 121.171 70.9973 121.432 70.8071 121.756C70.1648 122.891 70.8071 124.722 79.6494 125.938L70.2058 125.528C68.1064 123.294 66.5328 120.618 65.6001 117.697C65.4952 117.398 65.331 117.122 65.1173 116.888C64.9036 116.653 64.6449 116.463 64.3564 116.331C63.7961 116.085 63.1538 116.085 62.7984 117.069C62.7984 117.069 61.6231 115.62 61.0218 116.918C60.8406 117.308 60.8066 117.75 60.9261 118.162L62.4157 123.957C62.6664 125.223 63.3895 126.347 64.4384 127.1C66.6047 128.693 68.8891 130.118 71.2718 131.364C71.9662 131.69 72.7451 131.79 73.4994 131.651L83.3668 129.738C90.0771 128.836 106.135 143.404 118.203 144.88C118.979 144.967 119.764 144.898 120.513 144.677C121.262 144.457 121.96 144.088 122.564 143.594C123.169 143.1 123.669 142.491 124.035 141.801C124.401 141.111 124.625 140.355 124.695 139.578L125.187 134.193C120.001 131.555 114.396 129.839 108.623 129.123Z" fill="white" stroke="#1E1E1C" stroke-width="0.5" stroke-linecap="round" stroke-linejoin="round"/>
<path d="M70.3424 129.3C70.2622 129.3 70.1848 129.271 70.1238 129.218L65.7231 125.118C65.0929 124.52 64.623 123.773 64.3564 122.945L62.4431 117.123C62.421 117.044 62.4298 116.958 62.4678 116.885C62.5058 116.811 62.5702 116.755 62.6481 116.727C62.6876 116.714 62.7292 116.709 62.7705 116.713C62.8119 116.716 62.8521 116.728 62.8889 116.747C62.9258 116.766 62.9585 116.792 62.9852 116.824C63.0119 116.856 63.032 116.892 63.0444 116.932L64.9441 122.727C65.1832 123.456 65.6014 124.114 66.1604 124.64L70.5611 128.74C70.6084 128.783 70.6415 128.84 70.6558 128.902C70.6701 128.964 70.6651 129.03 70.6413 129.089C70.6175 129.149 70.5762 129.199 70.5228 129.235C70.4693 129.27 70.4064 129.288 70.3424 129.287V129.3Z" fill="#3C3C3B"/>
<path d="M111.944 74.5107C110.222 77.6814 105.534 79.9774 100.013 79.9774C93.0291 79.9774 87.3711 76.3421 87.3711 71.7774C87.3977 70.3745 87.9151 69.0253 88.8334 67.9644C89.0004 67.7677 89.1783 67.5806 89.3664 67.4041C90.2149 67.5582 91.09 67.3762 91.8067 66.8967C92.5234 66.4172 93.0255 65.6778 93.2068 64.8347L95.0518 56.3477L108.855 59.3134L109.538 59.4637L107.967 66.4474C107.637 68.0258 107.837 69.6689 108.537 71.1218C109.236 72.5747 110.395 73.7563 111.834 74.4834L111.944 74.5107Z" fill="white" stroke="#1E1E1C" stroke-width="0.5" stroke-linecap="round" stroke-linejoin="round"/>
<path d="M108.896 60.2291C108.896 66.1467 103.593 70.9437 97.0607 70.9437C94.0581 70.9685 91.1471 69.9108 88.8607 67.9644C89.0277 67.7677 89.2056 67.5806 89.3937 67.4041C90.2422 67.5582 91.1173 67.3762 91.834 66.8967C92.5507 66.4172 93.0528 65.6778 93.2341 64.8347L95.0791 56.3477L108.855 59.3134C108.882 59.6141 108.896 59.9284 108.896 60.2291Z" fill="#27333A"/>
<path d="M125.542 48.5303C124.599 54.325 118.968 53.177 118.968 53.177C117.387 56.1028 115.151 58.6237 112.436 60.5434C112.039 60.8167 111.807 60.9534 111.807 60.9534L111.124 61.3634C110.03 61.992 108.978 62.5387 107.98 63.0033C107.488 63.2357 107.01 63.427 106.545 63.6184C105.863 63.9042 105.165 64.1506 104.454 64.3564C103.469 64.6563 102.465 64.8892 101.448 65.0533C100.71 65.1613 99.9648 65.2025 99.22 65.1763C97.2552 65.0861 95.3457 64.4967 93.6719 63.4637C91.9981 62.4307 90.615 60.9882 89.6534 59.2724C89.336 58.7584 89.0617 58.219 88.8334 57.6597C88.5665 56.9356 88.3429 56.1963 88.1637 55.4457C88.1637 55.186 88.0544 54.94 88.0134 54.694C87.8781 53.9124 87.7959 53.1224 87.7674 52.3297C87.7266 51.1778 87.7953 50.0246 87.9724 48.8857C88.0544 48.3527 88.1637 47.806 88.273 47.273L88.396 46.8084C88.396 46.535 88.5327 46.2617 88.6147 45.9884C88.6967 45.715 88.806 45.3324 88.929 45.0044L89.5851 43.05C90.3231 40.9044 91.0337 38.7724 91.6077 36.5994C92.4277 33.4697 94.9287 30.6544 97.3067 28.3994C98.8141 26.9101 100.572 25.698 102.5 24.8187C105.185 23.7623 108.082 23.3601 110.953 23.6452C113.824 23.9304 116.585 24.8948 119.009 26.4587C125.446 30.8047 124.736 38.0617 121.551 44.0477C126.499 42.722 125.542 48.5303 125.542 48.5303Z" fill="white" stroke="#1E1E1C" stroke-width="0.5" stroke-miterlimit="10"/>
<path d="M94.9561 49.9653C95.2817 49.5915 95.6537 49.2609 96.0631 48.9813C96.4918 48.6233 96.8853 48.2251 97.2384 47.7923C97.9392 46.9472 98.4851 45.9848 98.8511 44.9497C98.9137 44.8162 99.0253 44.712 99.1627 44.6585C99.3001 44.6051 99.4527 44.6066 99.5891 44.6627C99.653 44.6921 99.7104 44.7338 99.7581 44.7855C99.8058 44.8372 99.8427 44.8979 99.8669 44.9639C99.891 45.03 99.9018 45.1002 99.8987 45.1704C99.8956 45.2407 99.8786 45.3097 99.8487 45.3733C99.2083 47.1224 98.114 48.6696 96.6781 49.856C96.1177 50.307 95.3114 50.758 95.7897 51.537C96.2681 52.316 97.2657 52.398 98.0857 52.5073C98.9057 52.6167 98.5777 53.669 97.8807 53.587C96.8138 53.5727 95.7924 53.1524 95.0244 52.4117C94.7385 52.0715 94.5762 51.6446 94.5638 51.2004C94.5513 50.7562 94.6896 50.3209 94.9561 49.9653Z" fill="#3C3C3B"/>
<path d="M106.737 47.5464C106.354 48.4894 105.507 49.0907 104.851 48.913C104.195 48.7354 103.99 47.7377 104.372 46.7947C104.755 45.8517 105.602 45.2504 106.258 45.428C106.914 45.6057 107.133 46.6034 106.737 47.5464Z" fill="#3C3C3B"/>
<path d="M96.2544 44.7857C95.8581 45.7423 95.0244 46.33 94.3684 46.1523C93.7124 45.9747 93.4937 44.9907 93.8764 44.034C94.2591 43.0773 95.1201 42.4897 95.7624 42.6673C96.4047 42.845 96.6371 43.8427 96.2544 44.7857Z" fill="#3C3C3B"/>
<path d="M97.6621 37.7063C97.4646 37.5665 97.2335 37.4816 96.9924 37.4603C96.2132 37.4091 95.4394 37.621 94.7951 38.0622C94.1507 38.5033 93.6732 39.148 93.4391 39.893C93.568 39.689 93.7408 39.5163 93.9447 39.3873C94.0513 39.2967 94.1711 39.2229 94.3001 39.1687C94.7977 39.0059 95.326 38.9591 95.8444 39.032C96.3611 39.1064 96.8857 39.1064 97.4024 39.032C97.5338 39.0163 97.6567 38.9586 97.7527 38.8675C97.8488 38.7764 97.9128 38.6568 97.9354 38.5263C97.9648 38.3777 97.955 38.224 97.9071 38.0802C97.8592 37.9365 97.7748 37.8076 97.6621 37.7063Z" fill="#3C3C3B"/>
<path d="M106.86 39.6333C107.095 39.543 107.35 39.5194 107.598 39.565C108.344 39.707 109.012 40.1181 109.476 40.7201C109.94 41.3222 110.166 42.0734 110.112 42.8313C110.058 42.6001 109.951 42.3847 109.798 42.2027C109.726 42.0868 109.633 41.9849 109.525 41.902C109.117 41.6204 108.649 41.4379 108.158 41.369C107.617 41.2992 107.091 41.1422 106.6 40.9043C106.479 40.8558 106.378 40.7664 106.316 40.6516C106.253 40.5368 106.233 40.4038 106.258 40.2757C106.305 40.1307 106.383 39.9978 106.487 39.8867C106.591 39.7756 106.718 39.689 106.86 39.6333Z" fill="#3C3C3B"/>
<path d="M104.7 55.0767C103.67 55.7755 102.486 56.2161 101.249 56.3612C100.012 56.5063 98.7583 56.3517 97.5937 55.9104C97.4632 55.8773 97.325 55.8923 97.2047 55.9528C97.0843 56.0132 96.9897 56.115 96.9382 56.2395C96.8868 56.364 96.8819 56.5028 96.9245 56.6306C96.967 56.7584 97.0542 56.8666 97.1701 56.9354C98.5189 57.4348 99.968 57.6024 101.395 57.424C102.822 57.2456 104.186 56.7264 105.37 55.9104C105.985 55.5004 105.302 54.6667 104.7 55.0767Z" fill="#3C3C3B"/>
<path d="M125.993 30.9687C124.91 28.1951 122.928 25.8656 120.362 24.354C115.183 21.402 108.226 22.632 103.457 19.1334C103.298 19.5985 103.267 20.0978 103.368 20.5789C103.469 21.0599 103.698 21.5048 104.031 21.8667C102.722 21.595 101.371 21.6006 100.064 21.8831C98.758 22.1655 97.5253 22.7186 96.4457 23.5067C94.2927 25.0881 92.3781 26.9705 90.7604 29.0964L93.0017 28.167C90.4398 29.3955 88.3562 31.437 87.0757 33.9732C85.7952 36.5095 85.3897 39.3982 85.9224 42.189C86.2654 43.3391 86.4943 44.5201 86.6057 45.715C86.6529 46.3143 86.5258 46.9144 86.2396 47.443C85.9535 47.9716 85.5206 48.4062 84.993 48.6944C85.3686 48.8607 85.786 48.908 86.1892 48.8298C86.5924 48.7516 86.9619 48.5517 87.248 48.257C87.8042 47.6494 88.2278 46.9327 88.4917 46.1524L90.0497 42.3667C91.9215 37.8486 95.3026 34.1198 99.6164 31.816H99.712C99.0522 32.3952 98.5495 33.1319 98.2507 33.9575C97.9519 34.7831 97.8667 35.6708 98.0031 36.5382C98.1395 37.4055 98.493 38.2243 99.0307 38.9184C99.5684 39.6125 100.273 40.1593 101.079 40.508C101.197 38.9499 101.7 37.4453 102.541 36.1289C103.383 34.8124 104.538 33.7251 105.903 32.964C105.154 34.0436 104.782 35.3405 104.847 36.653C104.911 37.9654 105.407 39.2199 106.258 40.221C107.101 37.6401 108.792 35.4199 111.055 33.9207C109.875 36.2183 109.639 38.8865 110.399 41.3554C111.028 43.337 112.272 45.1 112.777 47.1227C113.283 49.1454 112.668 51.7147 110.714 52.4254C112.155 52.7715 113.667 52.6665 115.046 52.1247C114.678 52.5273 114.408 53.0091 114.256 53.5328C114.105 54.0566 114.076 54.6082 114.171 55.145C114.417 56.6484 115.265 57.9877 115.538 59.4774C115.811 60.967 115.456 62.8667 114.007 63.345C116.418 63.0541 118.696 62.0838 120.577 60.5472C122.457 59.0106 123.861 56.9712 124.626 54.6667C125.185 52.3728 125.555 50.0372 125.733 47.683C126.116 44.9497 126.868 42.3667 127.1 39.6744C127.449 36.7256 127.069 33.7363 125.993 30.9687Z" fill="#3C3C3B"/>
<path d="M136.27 143.5H129.833V115.962H136.216C138.23 115.965 140.161 116.767 141.585 118.191C143.009 119.616 143.811 121.546 143.814 123.56V135.86C143.822 137.872 143.032 139.805 141.619 141.237C140.205 142.668 138.282 143.482 136.27 143.5ZM131.842 141.546H136.27C137.77 141.542 139.207 140.945 140.267 139.884C141.327 138.824 141.925 137.387 141.928 135.888V123.588C141.925 122.089 141.327 120.654 140.266 119.596C139.206 118.538 137.769 117.943 136.27 117.943H131.842V141.546Z" fill="#74C9E3"/>
<path d="M113.051 110.153H133.551V143.295C133.551 143.566 133.497 143.834 133.394 144.085C133.29 144.335 133.138 144.563 132.946 144.754C132.755 144.946 132.527 145.098 132.277 145.202C132.026 145.305 131.758 145.359 131.487 145.359H115.087C114.54 145.359 114.015 145.141 113.628 144.754C113.241 144.367 113.023 143.842 113.023 143.295V110.153H113.051Z" fill="#B9E1F1"/>
<path d="M132.963 112.996H113.775V116.768H132.963V112.996Z" fill="#853E1E"/>
<g style="mix-blend-mode:multiply">
<path d="M113.051 110.153V112.791H113.187C116.179 113.094 119.023 114.241 121.387 116.098C123.83 117.903 125.83 120.24 127.237 122.932C128.577 125.685 129.357 128.676 129.533 131.733C129.672 133.25 129.708 134.775 129.642 136.298C129.561 137.945 129.272 139.575 128.781 141.149C128.357 142.598 127.811 144.006 127.291 145.413H131.501C132.047 145.41 132.57 145.191 132.956 144.805C133.342 144.419 133.561 143.896 133.564 143.35V110.153H113.051Z" fill="#B9E1F1"/>
</g>
<path d="M123.547 122.781V112.654H123.191V122.781H122.289V126.007H124.449V122.781H123.547Z" fill="#B9B8BE"/>
<path d="M132.485 131.036V142.598C132.489 142.865 132.427 143.13 132.306 143.368C132.184 143.606 132.007 143.811 131.788 143.965C131.505 144.167 131.166 144.277 130.817 144.279H115.538C115.117 144.275 114.713 144.114 114.404 143.828C114.239 143.675 114.107 143.488 114.018 143.281C113.928 143.074 113.883 142.851 113.884 142.625V130.011L114.404 130.325C115.057 130.694 115.769 130.949 116.508 131.077H116.932C118.393 131.179 119.86 131.045 121.278 130.681C122.098 130.503 122.932 130.284 123.779 130.175C124.686 130.066 125.601 130.039 126.512 130.093C127.578 130.18 128.637 130.335 129.683 130.558C130.38 130.681 131.05 130.817 131.774 130.913L132.485 131.036Z" fill="#853E1E"/>
<g style="mix-blend-mode:screen">
<path d="M118.558 142.53C118.119 141.11 117.821 139.649 117.67 138.17C117.522 136.667 117.476 135.156 117.533 133.646C117.533 132.826 117.602 131.993 117.656 131.173H116.946H116.522C115.783 131.044 115.071 130.79 114.417 130.421L113.898 130.107V142.694C113.897 142.919 113.942 143.143 114.031 143.35C114.121 143.557 114.252 143.743 114.417 143.896C114.726 144.182 115.131 144.343 115.552 144.347H119.255C118.985 143.757 118.753 143.15 118.558 142.53Z" fill="#853E1E"/>
</g>
<g style="mix-blend-mode:multiply" opacity="0.24">
<path d="M131.801 130.968C131.104 130.872 130.435 130.735 129.71 130.612L127.783 130.284C127.919 130.553 128.034 130.831 128.125 131.118C128.335 131.801 128.486 132.5 128.576 133.209C128.74 134.439 128.795 135.669 128.877 136.899C128.966 138.09 128.993 139.286 128.959 140.48C128.941 141.753 128.771 143.019 128.453 144.252H130.831C131.179 144.25 131.518 144.14 131.801 143.937C132.02 143.784 132.198 143.579 132.32 143.341C132.441 143.102 132.502 142.838 132.498 142.571V131.036L131.801 130.968Z" fill="#853E1E"/>
</g>
<g style="mix-blend-mode:multiply" opacity="0.27">
<path d="M131.801 130.968C131.104 130.872 130.435 130.735 129.71 130.612H129.464C129.382 132.206 129.093 133.781 128.603 135.3C128.065 137.104 126.957 138.686 125.446 139.81C124.157 140.617 122.723 141.165 121.223 141.423C119.576 141.78 117.878 141.844 116.208 141.614C115.394 141.492 114.608 141.228 113.884 140.835V142.612C113.883 142.837 113.928 143.061 114.018 143.268C114.107 143.475 114.239 143.661 114.404 143.814C114.713 144.1 115.117 144.261 115.538 144.265H130.817C131.166 144.264 131.505 144.154 131.788 143.951C132.007 143.797 132.184 143.592 132.306 143.354C132.427 143.116 132.489 142.852 132.485 142.584V131.036L131.801 130.968Z" fill="#853E1E"/>
</g>
<path d="M133.564 115.962H113.051V119.324H133.564V115.962Z" fill="#333351"/>
<path d="M128.931 100.628H117.684V105.698H128.931V100.628Z" fill="#333351"/>
<path d="M129.013 100.628H117.615C117.278 100.628 116.955 100.494 116.717 100.255C116.478 100.017 116.344 99.6938 116.344 99.3567C116.344 99.0196 116.478 98.6963 116.717 98.458C116.955 98.2196 117.278 98.0857 117.615 98.0857H129.013C129.35 98.0857 129.674 98.2196 129.912 98.458C130.15 98.6963 130.284 99.0196 130.284 99.3567C130.284 99.6938 130.15 100.017 129.912 100.255C129.674 100.494 129.35 100.628 129.013 100.628Z" fill="#B9B8BE"/>
<path d="M133.619 110.153H113.119V113.242H133.619V110.153Z" fill="#B9B8BE"/>
<g style="mix-blend-mode:screen">
<g style="mix-blend-mode:screen">
<path d="M117.233 110.153H113.119V113.242H117.233V110.153Z" fill="#B9B8BE"/>
</g>
</g>
<g style="mix-blend-mode:screen">
<g style="mix-blend-mode:screen">
<path d="M119.98 110.153H118.572V113.242H119.98V110.153Z" fill="#B9B8BE"/>
</g>
</g>
<g style="mix-blend-mode:screen">
<g style="mix-blend-mode:screen">
<path d="M122.084 110.153H120.677V113.242H122.084V110.153Z" fill="#B9B8BE"/>
</g>
</g>
<g style="mix-blend-mode:multiply">
<g style="mix-blend-mode:multiply">
<path d="M130.271 110.153H123.697V113.242H130.271V110.153Z" fill="#B9B8BE"/>
</g>
</g>
<g style="mix-blend-mode:multiply">
<g style="mix-blend-mode:multiply">
<path d="M132.731 110.153H131.432V113.242H132.731V110.153Z" fill="#B9B8BE"/>
</g>
</g>
<path d="M133.619 125.036H113.119V126.977H133.619V125.036Z" fill="#B9B8BE"/>
<g style="mix-blend-mode:screen">
<g style="mix-blend-mode:screen">
<path d="M117.233 125.036H113.119V126.977H117.233V125.036Z" fill="#B9B8BE"/>
</g>
</g>
<g style="mix-blend-mode:screen">
<g style="mix-blend-mode:screen">
<path d="M119.98 125.036H118.572V126.977H119.98V125.036Z" fill="#B9B8BE"/>
</g>
</g>
<g style="mix-blend-mode:screen">
<g style="mix-blend-mode:screen">
<path d="M122.084 125.036H120.677V126.977H122.084V125.036Z" fill="#B9B8BE"/>
</g>
</g>
<g style="mix-blend-mode:multiply">
<g style="mix-blend-mode:multiply">
<path d="M130.271 125.036H123.697V126.977H130.271V125.036Z" fill="#B9B8BE"/>
</g>
</g>
<g style="mix-blend-mode:multiply">
<g style="mix-blend-mode:multiply">
<path d="M132.731 125.036H131.432V126.977H132.731V125.036Z" fill="#B9B8BE"/>
</g>
</g>
<path d="M115.032 129.355H114.212V114.281H117.233L115.032 129.355Z" fill="white"/>
<path d="M108.773 110.153L113.051 119.337L113.119 110.153H108.773Z" fill="#B9E1F1"/>
<path d="M133.564 110.153H113.064C113.187 106.381 117.711 103.32 123.287 103.32C128.863 103.32 133.441 106.381 133.564 110.153Z" fill="#B9E1F1"/>
<g style="mix-blend-mode:multiply">
<path d="M123.342 103.334C122.139 103.328 120.94 103.475 119.775 103.771C121.55 103.713 123.32 104.005 124.982 104.632C125.723 104.906 126.395 105.34 126.95 105.903C127.113 106.08 127.221 106.302 127.26 106.54C127.298 106.778 127.266 107.022 127.167 107.242C127.068 107.462 126.907 107.648 126.703 107.777C126.499 107.906 126.261 107.972 126.02 107.967C122.508 107.967 114.964 107.967 113.72 107.967C113.329 108.666 113.109 109.448 113.078 110.249H133.578C133.441 106.381 128.918 103.334 123.342 103.334Z" fill="#B9E1F1"/>
</g>
<path d="M40.3168 109.62H21.1014C19.7348 109.62 17.6028 145.864 19.0241 145.933H42.3668C43.7334 145.864 41.6971 109.552 40.3168 109.62Z" fill="#CBBBA0"/>
<g style="mix-blend-mode:screen">
<path d="M30.7228 115.196C28.5173 115.199 26.3935 116.032 24.7732 117.528C23.1529 119.024 22.1545 121.075 21.9761 123.273C21.4978 129.341 21.0604 136.626 21.7164 136.639H39.7974C40.4124 136.639 39.9614 129.328 39.4694 123.26C39.2909 121.063 38.292 119.013 36.6713 117.519C35.0506 116.025 32.927 115.196 30.7228 115.196Z" fill="#C41624"/>
</g>
<g style="mix-blend-mode:screen">
<path d="M30.7228 117.41C28.9711 117.408 27.2832 118.067 25.9962 119.256C24.7091 120.444 23.9177 122.074 23.7801 123.82C23.3974 128.644 23.0558 134.425 23.5751 134.439H37.9388C38.4308 134.439 38.0618 128.631 37.6791 123.806C37.5349 122.061 36.7392 120.435 35.4503 119.249C34.1614 118.064 32.4737 117.408 30.7228 117.41Z" fill="#C41624"/>
</g>
<g style="mix-blend-mode:screen">
<path d="M40.3031 138.512H21.1014V142.188H40.3031V138.512Z" fill="#C41624"/>
</g>
<path d="M31.1737 125.528C29.6704 127.004 27.7434 127.592 26.3767 126.389C25.0101 125.187 25.6387 123.519 27.1557 122.043C28.6727 120.567 30.4631 119.898 31.8297 121.087C33.1964 122.276 32.6771 124.066 31.1737 125.528Z" fill="#853E1E"/>
<g style="mix-blend-mode:multiply" opacity="0.51">
<path d="M31.1737 125.528C29.6704 127.004 27.7434 127.592 26.3767 126.389C25.0101 125.187 25.6387 123.519 27.1557 122.043C28.6727 120.567 30.4631 119.898 31.8297 121.087C33.1964 122.276 32.6771 124.066 31.1737 125.528Z" fill="#853E1E"/>
</g>
<g style="mix-blend-mode:multiply">
<path d="M29.7797 124.367C28.4131 125.733 27.1284 126.553 26.7047 126.184C26.2811 125.815 27.1967 124.613 28.5497 123.301C29.9027 121.989 31.1601 121.073 31.5837 121.442C32.0074 121.811 31.1191 123 29.7797 124.367Z" fill="#853E1E"/>
</g>
<path d="M35.7247 127.701C35.3011 129.683 34.0164 131.118 32.1714 130.79C30.3264 130.462 29.8754 128.713 30.2991 126.69C30.7228 124.667 31.8434 123.246 33.7021 123.574C35.5608 123.902 36.1484 125.733 35.7247 127.701Z" fill="#853E1E"/>
<g style="mix-blend-mode:multiply" opacity="0.17">
<path d="M35.7247 127.701C35.3011 129.683 34.0164 131.118 32.1714 130.79C30.3264 130.462 29.8754 128.713 30.2991 126.69C30.7228 124.667 31.8434 123.246 33.7021 123.574C35.5608 123.902 36.1484 125.733 35.7247 127.701Z" fill="#853E1E"/>
</g>
<g style="mix-blend-mode:multiply">
<path d="M33.8387 127.373C33.456 129.136 32.8684 130.517 32.2943 130.421C31.7203 130.325 31.8023 128.836 32.185 127.073C32.5677 125.31 33.1007 123.902 33.6747 124.011C34.2487 124.121 34.1667 125.597 33.8387 127.373Z" fill="#853E1E"/>
</g>
<path d="M31.1054 129.451C30.6818 131.432 29.4108 132.867 27.5521 132.539C25.6934 132.211 25.2561 130.462 25.6798 128.439C26.1034 126.417 27.2241 124.995 29.0828 125.323C30.9414 125.651 31.5291 127.483 31.1054 129.451Z" fill="#853E1E"/>
<g style="mix-blend-mode:multiply">
<path d="M29.2331 129.123C28.8504 130.886 28.2491 132.266 27.6888 132.17C27.1285 132.075 27.1831 130.585 27.5658 128.822C27.9485 127.059 28.4951 125.651 29.0555 125.761C29.6158 125.87 29.6021 127.346 29.2331 129.123Z" fill="#853E1E"/>
</g>
<g style="mix-blend-mode:multiply" opacity="0.25">
<path d="M42.3668 145.933H19.0378C18.6961 145.933 18.5594 143.814 18.5594 140.644C28.7684 140.644 36.9821 132.908 36.7088 123.533C36.5721 118.476 36.3261 113.31 35.9161 109.62H40.3168C41.6971 109.552 43.7334 145.864 42.3668 145.933Z" fill="#936037"/>
</g>
<path d="M40.3031 106.518H21.1014V109.607H40.3031V106.518Z" fill="#C41624"/>
<path d="M40.3031 106.518H21.1014V109.607H40.3031V106.518Z" fill="#C41624"/>
<path d="M40.3031 106.518H21.1014V109.607H40.3031V106.518Z" fill="#936037"/>
<path d="M109.169 141.04C108.712 141.037 108.255 141.001 107.803 140.931L107.994 139.742C108.648 139.893 109.327 139.906 109.986 139.779C110.645 139.652 111.27 139.388 111.821 139.004C113.006 137.837 113.688 136.252 113.72 134.589C113.725 134.52 113.716 134.45 113.692 134.384C113.669 134.318 113.632 134.258 113.584 134.207C113.536 134.153 113.477 134.111 113.411 134.082C113.344 134.054 113.273 134.04 113.201 134.043H108.814V132.84H113.215C113.452 132.842 113.687 132.891 113.906 132.985C114.124 133.078 114.321 133.215 114.486 133.387C114.651 133.571 114.776 133.788 114.853 134.023C114.931 134.258 114.959 134.507 114.937 134.753C114.921 135.744 114.705 136.721 114.301 137.625C113.897 138.529 113.313 139.342 112.586 140.015C111.598 140.737 110.392 141.099 109.169 141.04Z" fill="#B9E1F1"/>
<path d="M90.0907 131.2C90.0178 131.198 89.9453 131.211 89.8773 131.238C89.8094 131.264 89.7475 131.304 89.6953 131.355C89.6431 131.406 89.6016 131.467 89.5733 131.534C89.545 131.601 89.5304 131.674 89.5304 131.747V134.48C89.5266 136.373 90.0322 138.232 90.994 139.862C91.9558 141.492 93.3385 142.834 94.9971 143.746C94.9971 144.029 95.1094 144.3 95.3093 144.5C95.5092 144.7 95.7804 144.812 96.0631 144.812H104.263C104.547 144.808 104.818 144.693 105.018 144.491C105.217 144.289 105.329 144.016 105.329 143.732V143.637C106.944 142.727 108.29 141.408 109.233 139.813C110.176 138.217 110.682 136.401 110.7 134.548V131.815C110.7 131.742 110.686 131.67 110.657 131.603C110.629 131.535 110.587 131.474 110.535 131.424C110.483 131.373 110.421 131.333 110.353 131.306C110.285 131.279 110.213 131.267 110.14 131.268L90.0907 131.2Z" fill="#B9E1F1"/>
<g style="mix-blend-mode:multiply" opacity="0.67">
<path d="M110.099 131.2C110.172 131.198 110.244 131.211 110.312 131.238C110.38 131.264 110.442 131.304 110.494 131.355C110.546 131.406 110.588 131.467 110.616 131.534C110.645 131.601 110.659 131.674 110.659 131.747V134.48C110.658 136.341 110.165 138.169 109.229 139.777C108.292 141.385 106.947 142.717 105.329 143.637V143.732C105.329 144.016 105.217 144.289 105.018 144.491C104.818 144.693 104.547 144.808 104.263 144.812H96.0631C95.9232 144.812 95.7847 144.785 95.6556 144.731C95.5265 144.677 95.4095 144.597 95.3114 144.498C95.1879 144.375 95.0944 144.225 95.0381 144.06L96.2407 143.637C98.8914 142.72 101.222 141.06 102.955 138.855C104.688 136.65 105.749 133.992 106.012 131.2H110.099Z" fill="#B9E1F1"/>
</g>
<path d="M93.5894 132.389H90.2001C90.5144 139.646 94.6691 141.71 94.6691 141.71C92.0587 135.983 93.5894 132.389 93.5894 132.389Z" fill="white"/>
<g opacity="0.28">
<path opacity="0.28" d="M108.281 115.36C106.491 113.433 103.867 111.971 103.484 109.402C103.101 107.106 104.659 104.741 104.359 102.568C104.027 104.232 103.252 105.776 102.117 107.037C100.86 108.705 99.6164 110.823 100.382 112.764C101.147 114.704 103.593 115.497 104.222 117.506C104.372 118.317 104.326 119.151 104.088 119.94C103.85 120.729 103.428 121.45 102.855 122.043C101.734 123.23 100.852 124.622 100.259 126.143C100.077 127.018 100.094 127.923 100.306 128.79C100.519 129.658 100.923 130.467 101.489 131.159L105.233 131.255C105.258 129.533 105.729 127.847 106.6 126.362C107.775 124.995 109.333 123.929 110.03 122.262C111.096 119.925 110.003 117.192 108.281 115.36Z" fill="#FEFFFF"/>
</g>
<g opacity="0.28">
<path opacity="0.28" d="M98.2634 121.797C97.1974 120.677 95.6667 119.788 95.407 118.258C95.1474 116.727 96.104 115.524 95.9264 114.158C95.7155 115.148 95.2437 116.063 94.5597 116.809C94.1156 117.254 93.7922 117.806 93.62 118.41C93.4479 119.015 93.4326 119.654 93.5757 120.267C94.013 121.401 95.4754 121.934 95.8444 123.096C95.9481 123.579 95.9327 124.081 95.7993 124.557C95.666 125.033 95.4188 125.47 95.079 125.829C94.4099 126.536 93.8853 127.367 93.5347 128.275C93.4384 128.789 93.4571 129.318 93.5894 129.824C93.7217 130.329 93.9644 130.799 94.3 131.2H96.5277C96.547 130.178 96.8345 129.179 97.3614 128.303C98.1605 127.606 98.8474 126.79 99.3977 125.884C99.6101 125.165 99.6164 124.4 99.4159 123.678C99.2154 122.956 98.816 122.304 98.2634 121.797Z" fill="#FEFFFF"/>
</g>
<path d="M144.306 145.154H17.384C16.5009 145.154 15.785 145.87 15.785 146.753V150.429C15.785 151.312 16.5009 152.028 17.384 152.028H144.306C145.189 152.028 145.905 151.312 145.905 150.429V146.753C145.905 145.87 145.189 145.154 144.306 145.154Z" fill="#683C11"/>
<path d="M144.197 144.06H17.1654C16.2823 144.06 15.5664 144.776 15.5664 145.659V149.336C15.5664 150.219 16.2823 150.935 17.1654 150.935H144.197C145.08 150.935 145.796 150.219 145.796 149.336V145.659C145.796 144.776 145.08 144.06 144.197 144.06Z" fill="#936037"/>
<path d="M23.2881 109.62L26.2264 108.527L23.2881 107.434L22.1948 104.482L21.1014 107.434L18.1631 108.527L21.1014 109.62L22.1948 112.559L23.2881 109.62Z" fill="#F6C019"/>
</svg>