<svg xmlns="http://www.w3.org/2000/svg" xmlns:xlink="http://www.w3.org/1999/xlink" width="40" height="40"><defs><path id="A" d="M0 10.4c0 7.05 6.353 14.8 8.93 17.637a1.43 1.43 0 0 0 2.131-.005h.001C13.635 25.16 20 17.44 20 10.183 20 5.105 15.94.5 10 .5 4.4.5 0 4.824 0 10.4"/></defs><g transform="translate(10 3.5)" fill-rule="evenodd"><path fill="#03ac0e" d="M14.964 25.663C17.396 26.38 19 27.606 19 29c0 2.2-4.03 4-9 4s-9-1.8-9-4c0-1.4 1.594-2.614 4.015-3.33a58.269 58.269 0 0 0 3.546 4.125l.156.164c.308.323.7.5 1.124.535l.156.006c.415 0 .828-.145 1.158-.433l.12-.114a60.53 60.53 0 0 0 3.541-4.104z"/><mask id="B" fill="#fff"><use xlink:href="#A"/></mask><use fill="#4fd15a" xlink:href="#A"/><path fill="#03ac0e" fill-rule="nonzero" d="M30.1 3.77c0 8.156-6.613 14.768-14.77 14.768A14.77 14.77 0 0 1 .564 3.77 14.77 14.77 0 0 1 15.332-11C23.488-11 30.1-4.387 30.1 3.77" mask="url(#B)"/><path fill="#fff" d="M14 9.5a4.001 4.001 0 0 1-8 0 4 4 0 1 1 8 0" mask="url(#B)"/></g></svg>