<svg width="24" height="24" viewBox="0 0 24 24" fill="none" xmlns="http://www.w3.org/2000/svg">
<path d="M19.6213 15.7824C19.0348 15.7824 18.4777 16.0121 18.0574 16.4275C17.6371 16.8478 17.4026 17.3951 17.4026 17.9816C17.4026 18.568 17.6323 19.1154 18.0574 19.5356C18.4826 19.951 19.0348 20.1807 19.6213 20.1807C20.8235 20.1807 21.8009 19.1936 21.8009 17.9816C21.8009 16.7696 20.8235 15.7824 19.6213 15.7824ZM19.6213 19.2033C18.9469 19.2033 18.38 18.6462 18.38 17.9816C18.38 17.317 18.9469 16.7598 19.6213 16.7598C20.2859 16.7598 20.8235 17.3072 20.8235 17.9816C20.8235 18.656 20.2859 19.2033 19.6213 19.2033ZM20.1881 8.45684C20.1002 8.37376 19.9829 8.32978 19.8607 8.32978H17.3537C17.0849 8.32978 16.865 8.5497 16.865 8.81848V12.8258C16.865 13.0946 17.0849 13.3145 17.3537 13.3145H21.3317C21.6005 13.3145 21.8204 13.0946 21.8204 12.8258V10.1429C21.8204 10.006 21.7618 9.87407 21.6591 9.78122L20.1881 8.45684ZM20.843 12.3371H17.8424V9.30229H19.6701L20.843 10.3579V12.3371ZM7.68723 15.7824C7.10079 15.7824 6.54368 16.0121 6.1234 16.4275C5.70312 16.8478 5.46854 17.3951 5.46854 17.9816C5.46854 18.568 5.69823 19.1154 6.1234 19.5356C6.54856 19.951 7.10079 20.1807 7.68723 20.1807C8.88943 20.1807 9.86683 19.1936 9.86683 17.9816C9.86683 16.7696 8.88943 15.7824 7.68723 15.7824ZM7.68723 19.2033C7.01283 19.2033 6.44594 18.6462 6.44594 17.9816C6.44594 17.317 7.01283 16.7598 7.68723 16.7598C8.35186 16.7598 8.88943 17.3072 8.88943 17.9816C8.88943 18.656 8.35186 19.2033 7.68723 19.2033ZM4.42761 16.3835H3.44533V15.0836C3.44533 14.8148 3.22541 14.5949 2.95663 14.5949C2.68784 14.5949 2.46793 14.8148 2.46793 15.0836V16.8722C2.46793 17.141 2.68784 17.3609 2.95663 17.3609H4.42761C4.6964 17.3609 4.91631 17.141 4.91631 16.8722C4.91631 16.6035 4.6964 16.3835 4.42761 16.3835ZM6.90531 13.7201C6.90531 13.4513 6.6854 13.2314 6.41662 13.2314H0.488699C0.219914 13.2314 0 13.4513 0 13.7201C0 13.9889 0.219914 14.2088 0.488699 14.2088H6.41662C6.6854 14.2088 6.90531 13.9938 6.90531 13.7201ZM1.48076 11.9559L7.40867 11.9901C7.67746 11.9901 7.89737 11.7751 7.90226 11.5063C7.90715 11.2327 7.68723 11.0127 7.41845 11.0127L1.49053 10.9785C1.48564 10.9785 1.48564 10.9785 1.48564 10.9785C1.21686 10.9785 0.996946 11.1936 0.996946 11.4623C0.992059 11.736 1.21197 11.9559 1.48076 11.9559ZM2.4777 9.73723H8.40562C8.6744 9.73723 8.89432 9.51732 8.89432 9.24853C8.89432 8.97975 8.6744 8.75984 8.40562 8.75984H2.4777C2.20892 8.75984 1.989 8.97975 1.989 9.24853C1.989 9.51732 2.20892 9.73723 2.4777 9.73723ZM23.8192 9.07749L20.3201 6.17951C20.2321 6.1062 20.1246 6.06711 20.0073 6.06711H15.8925V4.30779C15.8925 4.03901 15.6726 3.81909 15.4038 3.81909H2.95663C2.68784 3.81909 2.46793 4.03901 2.46793 4.30779V7.88507C2.46793 8.15385 2.68784 8.37377 2.95663 8.37377C3.22541 8.37377 3.44533 8.15385 3.44533 7.88507V4.79649H14.92V16.3835H10.9126C10.6439 16.3835 10.4239 16.6035 10.4239 16.8722C10.4239 17.141 10.6439 17.3609 10.9126 17.3609H16.8797C17.1484 17.3609 17.3684 17.141 17.3684 16.8722C17.3684 16.6035 17.1484 16.3835 16.8797 16.3835H15.8974V7.0445H19.8363L23.0226 9.68348L22.9884 16.3738H22.4801C22.2114 16.3738 21.9914 16.5937 21.9914 16.8625C21.9914 17.1312 22.2114 17.3512 22.4801 17.3512H23.4722C23.741 17.3512 23.9609 17.1361 23.9609 16.8674L24 9.45867C23.9951 9.31206 23.9316 9.17034 23.8192 9.07749Z" fill="white"/>
</svg>