<svg width="24" height="24" viewBox="0 0 24 24" fill="none" xmlns="http://www.w3.org/2000/svg">
<path d="M22.9238 15.8547L23.6874 14.5684L23.6925 14.5325C23.8637 14.2863 23.9696 14.0006 24 13.7023C24 13.282 23.7796 12.9694 23.0878 12.9694H20.0128C20.0607 12.761 20.1017 12.5492 20.1358 12.3339C20.8238 7.84063 17.7389 3.64038 13.2457 2.95242C8.7524 2.2644 4.55215 5.34922 3.86419 9.84249C3.7378 10.6681 3.7378 11.5082 3.86419 12.3338C3.89494 12.5457 3.93594 12.7575 3.98719 12.9693H0.912236C0.220372 12.9693 0 13.282 0 13.7022C0.0304292 14.0005 0.136259 14.2862 0.307495 14.5324L1.07111 15.8444L0.327995 17.1666C0.156758 17.4128 0.0509289 17.6985 0.0204997 17.9969C0.0204997 18.4171 0.240871 18.7297 0.932735 18.7297H3.29532V19.7547C3.28232 20.1108 3.4114 20.4574 3.65407 20.7182L3.67969 20.749C3.93222 21.0022 4.27534 21.1442 4.63293 21.1436H19.3824C20.1249 21.1379 20.7229 20.533 20.7201 19.7906V18.7656H23.0826C23.7745 18.7656 23.9949 18.453 23.9949 18.0328C23.9644 17.7344 23.8586 17.4487 23.6874 17.2025L22.9238 15.8547ZM6.80589 5.90207C9.67707 3.02917 14.3335 3.02782 17.2064 5.89899C18.5873 7.27907 19.3628 9.15159 19.3619 11.1039C19.363 11.7332 19.2837 12.36 19.1262 12.9693H18.4138C18.4719 12.7677 18.5215 12.5645 18.5625 12.3595C19.2211 8.73935 16.8204 5.27074 13.2004 4.612C9.58027 3.95338 6.1116 6.35402 5.45292 9.97414C5.30942 10.7628 5.30942 11.5709 5.45292 12.3595C5.49391 12.5645 5.54343 12.7677 5.60154 12.9693H4.88917C4.23081 10.4404 4.95996 7.75184 6.80589 5.90207ZM7.34914 13.2358L7.31839 13.2051C7.15067 13.0508 6.93126 12.9648 6.7034 12.9642H6.51377C6.42787 12.713 6.35939 12.4561 6.30878 12.1955C6.24017 11.834 6.20583 11.4667 6.20628 11.0987C6.20628 7.89611 8.8025 5.29989 12.0051 5.29989C15.2078 5.29989 17.804 7.89611 17.804 11.0987C17.8044 11.4667 17.7701 11.8339 17.7015 12.1955C17.6509 12.4561 17.5824 12.713 17.4965 12.9642H17.3069C17.079 12.9648 16.8596 13.0508 16.6919 13.2051L16.6611 13.2358C16.4901 13.4072 16.3942 13.6395 16.3946 13.8816V14.8502H7.62076V13.8816C7.61979 13.6388 7.52204 13.4064 7.34914 13.2358ZM3.67969 15.2448C3.43024 15.499 3.29193 15.8419 3.29532 16.198V17.8688H0.93786C0.973735 17.7919 1.03011 17.6945 1.07623 17.6176L1.96284 16.0802C2.04267 15.9441 2.04267 15.7755 1.96284 15.6394L1.07623 14.1019C1.03011 14.0199 0.973735 13.9277 0.93786 13.8508H6.73415C6.7369 13.8591 6.7369 13.8681 6.73415 13.8764V14.8451H4.63293C4.27707 14.8458 3.93607 14.9877 3.68482 15.2397L3.67969 15.2448ZM19.8488 19.7906C19.8461 20.0499 19.6366 20.2593 19.3773 20.2621H4.63293C4.50794 20.262 4.38808 20.2122 4.29981 20.1237C4.22063 20.0369 4.17675 19.9235 4.17681 19.806V16.2185C4.17681 15.9581 4.38789 15.747 4.6483 15.747H19.3824C19.5074 15.7472 19.6273 15.7969 19.7156 15.8854C19.804 15.9737 19.8538 16.0935 19.8539 16.2185L19.8488 19.7906ZM20.7201 17.8636V16.198C20.7207 15.8404 20.5787 15.4973 20.3254 15.2448C20.0742 14.9928 19.7332 14.8509 19.3773 14.8502H17.271V13.8816C17.2682 13.8732 17.2682 13.8643 17.271 13.8559H23.0775C23.0365 13.9226 22.9853 14.0148 22.9391 14.0968H22.9238L22.0372 15.6343C21.9573 15.7704 21.9573 15.939 22.0372 16.075L22.9238 17.6125C22.9699 17.6945 23.0263 17.7868 23.0621 17.8636H20.7201Z" fill="white"/>
<path d="M15.054 9.27882C14.9936 9.217 14.9162 9.17453 14.8316 9.15685L13.2121 8.81348L12.387 7.39388C12.2662 7.18587 11.9995 7.11515 11.7915 7.23603C11.726 7.27402 11.6716 7.32847 11.6336 7.39388L10.8085 8.82885L9.18902 9.17222C8.95347 9.2211 8.80209 9.45166 8.85097 9.68721C8.8666 9.76255 8.9019 9.83244 8.95327 9.88971L10.0603 11.1299L9.88601 12.775C9.85962 13.0142 10.0321 13.2294 10.2712 13.2558C10.3479 13.2643 10.4254 13.2522 10.4959 13.2209L12.0077 12.5188L13.4991 13.185C13.7136 13.294 13.9758 13.2085 14.0848 12.994C14.1231 12.9185 14.1387 12.8336 14.1295 12.7494L13.9552 11.1043L15.0468 9.89484C15.2189 9.72674 15.2222 9.45095 15.054 9.27882ZM13.1711 10.6892C13.0888 10.7816 13.0497 10.9045 13.0635 11.0274L13.1813 12.1139L12.1871 11.6681C12.0745 11.6181 11.946 11.6181 11.8335 11.6681L10.8392 12.1139L10.9571 11.0274C10.9717 10.8945 10.9245 10.7623 10.829 10.6687L10.1166 9.87946L11.1724 9.65909C11.3078 9.64186 11.4273 9.56223 11.4952 9.44384L12.0077 8.51623L12.551 9.44384C12.6124 9.55153 12.7168 9.62795 12.838 9.65396L13.904 9.87946L13.1711 10.6892Z" fill="white"/>
</svg>