<svg xmlns="http://www.w3.org/2000/svg" width="32" height="32"><path fill="#fff" d="M30.372 25.471c-1.06.199-2.119.331-3.179.464H4.873c-1.06-.066-2.186-.265-3.245-.464-.53-.132-.861-.53-.861-1.06v-1.126h30.467v1.126c0 .53-.397.993-.861 1.06z"/><path fill="#fff" d="M29.246 23.286V8.053c0-1.126-.861-1.987-1.987-1.987H4.74c-1.126 0-1.987.861-1.987 1.987v15.233z"/><path fill="none" stroke="#3e8ddd" stroke-miterlimit="10" d="M30.372 25.471c-1.06.199-2.119.331-3.179.464H4.873c-1.06-.066-2.186-.265-3.245-.464-.53-.132-.861-.53-.861-1.06v-1.126h30.467v1.126c0 .53-.397.993-.861 1.06z"/><path fill="none" stroke="#3e8ddd" stroke-miterlimit="10" d="M29.246 23.286V8.053c0-1.126-.861-1.987-1.987-1.987H4.74c-1.126 0-1.987.861-1.987 1.987v15.233"/></svg>