<svg xmlns="http://www.w3.org/2000/svg" width="32" height="32"><path fill="#fff" d="M25.13 31H6.869a1.308 1.308 0 0 1-1.304-1.304V2.305c0-.717.587-1.304 1.304-1.304H25.13c.717 0 1.304.587 1.304 1.304v27.391c0 .717-.587 1.304-1.304 1.304z"/><path fill="none" stroke="#3e8ddd" stroke-miterlimit="10" d="M26.435 29.043V2.956A1.963 1.963 0 0 0 24.478.999H7.521a1.963 1.963 0 0 0-1.957 1.957v26.087c0 1.043.848 1.957 1.957 1.957h16.957a1.922 1.922 0 0 0 1.957-1.957z"/><path fill="#3e8ddd" d="M16.652 28.391a.652.652 0 1 1-1.304 0 .652.652 0 0 1 1.304 0z"/></svg>